<svg width="174" height="46" viewBox="0 0 174 46" fill="none" xmlns="http://www.w3.org/2000/svg">
<path d="M26.3114 20.6735C26.3114 21.6703 25.9154 22.6264 25.2105 23.3313C24.5056 24.0362 23.5496 24.4322 22.5527 24.4322C21.5558 24.4322 20.5997 24.0362 19.8948 23.3313C19.1899 22.6264 18.7939 21.6703 18.7939 20.6735C18.7939 18.6797 19.5859 16.7676 20.9957 15.3578C22.4055 13.948 24.3177 13.156 26.3114 13.156C28.3052 13.156 30.2173 13.948 31.6271 15.3578C33.0369 16.7676 33.8289 18.6797 33.8289 20.6735C33.8289 23.6641 32.6409 26.5323 30.5262 28.647C28.4115 30.7617 25.5433 31.9497 22.5527 31.9497C19.562 31.9497 16.6939 30.7617 14.5792 28.647C12.4645 26.5323 11.2764 23.6641 11.2764 20.6735C11.2764 16.6859 12.8605 12.8617 15.6801 10.0421C18.4997 7.22251 22.3239 5.63847 26.3114 5.63847C30.2989 5.63847 34.1231 7.22251 36.9428 10.0421C39.7624 12.8617 41.3464 16.6859 41.3464 20.6735C41.3464 25.6579 39.3664 30.4381 35.8418 33.9626C32.3173 37.4871 27.5371 39.4672 22.5527 39.4672C17.5683 39.4672 12.788 37.4871 9.26349 33.9626C5.73898 30.4381 3.75893 25.6579 3.75893 20.6735C3.75201 15.7751 5.34944 11.0092 8.30702 7.10439C8.59499 6.67969 8.96686 6.31845 9.39973 6.04292C9.83261 5.76739 10.3173 5.58342 10.824 5.50232C11.3307 5.42122 11.8486 5.44472 12.3458 5.57138C12.8431 5.69803 13.3091 5.92516 13.7152 6.23876C14.1214 6.55236 14.459 6.94579 14.7073 7.39483C14.9556 7.84386 15.1094 8.33898 15.1591 8.84969C15.2088 9.3604 15.1534 9.87588 14.9964 10.3644C14.8393 10.8529 14.5839 11.304 14.2458 11.6901" stroke="black" stroke-width="3.75875" stroke-linecap="round" stroke-linejoin="round"/>
<path d="M167.723 30.1015C166.334 30.1015 165.138 29.787 164.135 29.1578C163.139 28.5225 162.372 27.6473 161.837 26.5323C161.301 25.4173 161.033 24.1404 161.033 22.7015C161.033 21.2439 161.307 19.9576 161.855 18.8426C162.404 17.7214 163.176 16.8463 164.173 16.2171C165.169 15.588 166.343 15.2734 167.695 15.2734C168.785 15.2734 169.757 15.4759 170.61 15.8808C171.464 16.2794 172.152 16.84 172.675 17.5626C173.205 18.2852 173.519 19.1292 173.619 20.0947H170.9C170.75 19.4219 170.408 18.8426 169.872 18.3568C169.343 17.8709 168.633 17.628 167.742 17.628C166.963 17.628 166.281 17.8335 165.696 18.2447C165.116 18.6495 164.665 19.2288 164.341 19.9825C164.017 20.73 163.855 21.6145 163.855 22.6361C163.855 23.6826 164.014 24.5858 164.332 25.3457C164.649 26.1056 165.098 26.6943 165.677 27.1116C166.262 27.529 166.951 27.7376 167.742 27.7376C168.271 27.7376 168.751 27.6411 169.181 27.448C169.617 27.2487 169.981 26.9652 170.274 26.5977C170.573 26.2302 170.782 25.788 170.9 25.271H173.619C173.519 26.1991 173.217 27.0275 172.713 27.7563C172.208 28.4851 171.532 29.0582 170.685 29.4755C169.844 29.8929 168.857 30.1015 167.723 30.1015Z" fill="black"/>
<path d="M148.747 21.2906V29.8119H145.953V15.4603H148.634V17.7962H148.812C149.142 17.0362 149.659 16.4258 150.363 15.9649C151.073 15.5039 151.967 15.2734 153.045 15.2734C154.022 15.2734 154.879 15.479 155.614 15.8901C156.349 16.295 156.919 16.8992 157.324 17.7027C157.729 18.5063 157.931 19.4998 157.931 20.6833V29.8119H155.137V21.0197C155.137 19.9794 154.866 19.1666 154.325 18.581C153.783 17.9893 153.038 17.6934 152.091 17.6934C151.444 17.6934 150.867 17.8335 150.363 18.1139C149.865 18.3942 149.469 18.8053 149.176 19.3472C148.89 19.8829 148.747 20.5307 148.747 21.2906Z" fill="black"/>
<path d="M141.972 10.6777V29.8132H139.085V10.6777H141.972Z" fill="black"/>
<path d="M128.14 10.6777V29.8132H125.346V10.6777H128.14Z" fill="black"/>
<path d="M114.543 30.1296C113.633 30.1296 112.811 29.9614 112.076 29.625C111.341 29.2824 110.758 28.7872 110.329 28.1394C109.905 27.4916 109.693 26.6974 109.693 25.7568C109.693 24.947 109.849 24.2805 110.16 23.7573C110.472 23.2341 110.892 22.8199 111.422 22.5146C111.951 22.2094 112.543 21.9789 113.197 21.8232C113.851 21.6675 114.518 21.5491 115.197 21.4682C116.056 21.3685 116.754 21.2875 117.289 21.2252C117.825 21.1567 118.214 21.0477 118.457 20.8982C118.7 20.7487 118.822 20.5058 118.822 20.1694V20.104C118.822 19.288 118.591 18.6558 118.13 18.2073C117.676 17.7588 116.997 17.5346 116.094 17.5346C115.153 17.5346 114.412 17.7432 113.87 18.1606C113.334 18.5717 112.963 19.0295 112.758 19.5341L110.132 18.9361C110.444 18.064 110.899 17.3601 111.497 16.8245C112.101 16.2825 112.795 15.8901 113.58 15.6472C114.365 15.398 115.19 15.2734 116.056 15.2734C116.629 15.2734 117.237 15.342 117.878 15.479C118.526 15.6098 119.13 15.8527 119.691 16.2078C120.258 16.5628 120.722 17.0705 121.083 17.7308C121.444 18.3848 121.625 19.2351 121.625 20.2815V29.8119H118.897V27.8498H118.784C118.604 28.211 118.333 28.5661 117.972 28.9149C117.61 29.2637 117.146 29.5534 116.579 29.7839C116.013 30.0143 115.334 30.1296 114.543 30.1296ZM115.15 27.8871C115.922 27.8871 116.582 27.7345 117.131 27.4293C117.685 27.1241 118.105 26.7254 118.392 26.2333C118.685 25.735 118.831 25.2024 118.831 24.6356V22.7856C118.731 22.8853 118.538 22.9787 118.252 23.0659C117.972 23.1469 117.651 23.2185 117.289 23.2808C116.928 23.3369 116.576 23.3898 116.234 23.4396C115.891 23.4832 115.605 23.5206 115.374 23.5518C114.832 23.6203 114.337 23.7355 113.888 23.8975C113.446 24.0594 113.091 24.293 112.823 24.5982C112.562 24.8972 112.431 25.2959 112.431 25.7942C112.431 26.4856 112.686 27.0088 113.197 27.3639C113.708 27.7127 114.359 27.8871 115.15 27.8871Z" fill="black"/>
<path d="M100.396 29.8106V15.459H103.097V17.7388H103.246C103.508 16.9665 103.969 16.3591 104.629 15.9169C105.295 15.4684 106.049 15.2441 106.89 15.2441C107.064 15.2441 107.27 15.2504 107.507 15.2628C107.75 15.2753 107.94 15.2909 108.077 15.3095V17.9818C107.965 17.9506 107.765 17.9164 107.479 17.879C107.192 17.8354 106.906 17.8136 106.619 17.8136C105.959 17.8136 105.37 17.9537 104.853 18.2341C104.342 18.5081 103.938 18.8912 103.639 19.3833C103.34 19.8692 103.19 20.4235 103.19 21.0464V29.8106H100.396Z" fill="black"/>
<path d="M93.8442 29.8118V15.4602H96.6379V29.8118H93.8442ZM95.2551 13.2458C94.7692 13.2458 94.3519 13.0838 94.003 12.7599C93.6604 12.4298 93.4891 12.0374 93.4891 11.5826C93.4891 11.1217 93.6604 10.7293 94.003 10.4054C94.3519 10.0752 94.7692 9.91016 95.2551 9.91016C95.7409 9.91016 96.1551 10.0752 96.4977 10.4054C96.8466 10.7293 97.021 11.1217 97.021 11.5826C97.021 12.0374 96.8466 12.4298 96.4977 12.7599C96.1551 13.0838 95.7409 13.2458 95.2551 13.2458Z" fill="black"/>
<path d="M77.6053 35.1937V15.4603H80.3336V17.7868H80.5672C80.7292 17.4878 80.9628 17.1421 81.268 16.7497C81.5732 16.3573 81.9968 16.0147 82.5387 15.7219C83.0806 15.4229 83.797 15.2734 84.6877 15.2734C85.8463 15.2734 86.8803 15.5662 87.7897 16.1517C88.6992 16.7372 89.4124 17.5813 89.9294 18.6838C90.4526 19.7863 90.7142 21.1131 90.7142 22.6641C90.7142 24.2151 90.4557 25.545 89.9387 26.6538C89.4217 27.7563 88.7116 28.6066 87.8084 29.2046C86.9052 29.7963 85.8743 30.0922 84.7157 30.0922C83.8437 30.0922 83.1305 29.9458 82.5761 29.653C82.0279 29.3603 81.5981 29.0177 81.2867 28.6253C80.9752 28.2328 80.7354 27.884 80.5672 27.5788H80.399V35.1937H77.6053ZM80.343 22.6361C80.343 23.6452 80.4894 24.5297 80.7821 25.2896C81.0749 26.0496 81.4985 26.6444 82.0528 27.0742C82.6072 27.4978 83.2862 27.7096 84.0897 27.7096C84.9244 27.7096 85.6221 27.4885 86.1827 27.0462C86.7433 26.5977 87.1668 25.9904 87.4534 25.2242C87.7461 24.4581 87.8925 23.5954 87.8925 22.6361C87.8925 21.6893 87.7492 20.839 87.4627 20.0853C87.1824 19.3316 86.7588 18.7368 86.192 18.3007C85.6314 17.8647 84.9306 17.6467 84.0897 17.6467C83.28 17.6467 82.5948 17.8554 82.0342 18.2727C81.4798 18.69 81.0593 19.2724 80.7728 20.0199C80.4863 20.7674 80.343 21.6395 80.343 22.6361Z" fill="black"/>
<path d="M71.3334 15.7005C71.2337 14.816 70.8226 14.1308 70.1 13.645C69.3775 13.1529 68.468 12.9068 67.3717 12.9068C66.5869 12.9068 65.9079 13.0314 65.3349 13.2806C64.7618 13.5235 64.3164 13.8599 63.9987 14.2897C63.6873 14.7132 63.5316 15.196 63.5316 15.7379C63.5316 16.1926 63.6375 16.585 63.8493 16.9152C64.0673 17.2453 64.3507 17.5225 64.6995 17.7467C65.0546 17.9648 65.4345 18.1485 65.8394 18.298C66.2443 18.4413 66.6336 18.5596 67.0073 18.6531L68.876 19.1389C69.4865 19.2884 70.1125 19.4909 70.7541 19.7462C71.3957 20.0016 71.9905 20.338 72.5387 20.7553C73.0868 21.1727 73.5291 21.6897 73.8655 22.3064C74.2081 22.923 74.3794 23.6612 74.3794 24.5208C74.3794 25.6046 74.099 26.567 73.5384 27.4079C72.9841 28.2488 72.1774 28.9122 71.1185 29.3981C70.0658 29.8839 68.792 30.1268 67.297 30.1268C65.8643 30.1268 64.6248 29.8995 63.5783 29.4448C62.5318 28.9901 61.7127 28.3454 61.121 27.5107C60.5292 26.6698 60.2022 25.6731 60.1399 24.5208H63.0364C63.0924 25.2122 63.3167 25.7884 63.7091 26.2493C64.1078 26.704 64.6154 27.0435 65.2321 27.2677C65.855 27.4858 66.5371 27.5948 67.2783 27.5948C68.0943 27.5948 68.82 27.4671 69.4553 27.2117C70.0969 26.9501 70.6015 26.5888 70.969 26.1278C71.3365 25.6607 71.5202 25.1156 71.5202 24.4927C71.5202 23.9259 71.3583 23.4618 71.0344 23.1006C70.7167 22.7393 70.2838 22.4403 69.7356 22.2036C69.1937 21.9669 68.5802 21.7582 67.895 21.5776L65.6339 20.9609C64.1015 20.5436 62.8869 19.93 61.9899 19.1202C61.0992 18.3105 60.6538 17.2391 60.6538 15.9061C60.6538 14.8035 60.9528 13.8412 61.5508 13.0189C62.1487 12.1967 62.9585 11.5582 63.9801 11.1035C65.0016 10.6426 66.154 10.4121 67.4371 10.4121C68.7328 10.4121 69.8758 10.6395 70.8662 11.0942C71.8628 11.5489 72.6477 12.1749 73.2208 12.9722C73.7938 13.7633 74.0928 14.6727 74.1177 15.7005H71.3334Z" fill="black"/>
</svg>
