<?xml version="1.0" encoding="UTF-8"?>
<svg width="2446px" height="2441px" viewBox="0 0 2446 2441" version="1.1" xmlns="http://www.w3.org/2000/svg" xmlns:xlink="http://www.w3.org/1999/xlink">
    <title>bwink_ppl_21_single_01</title>
    <g id="Page-1" stroke="none" stroke-width="1" fill="none" fill-rule="evenodd">
        <g id="bwink_ppl_21_single_01" transform="translate(0.1996, 0.6667)" fill-rule="nonzero">
            <g id="g8" transform="translate(1222.4698, 1220) scale(-1, 1) rotate(-180) translate(-1222.4698, -1220)translate(0, 0)">
                <g id="g10" transform="translate(0, 0)">
                    <path d="M994.307009,2262.41328 L911.400344,2262.41328 C911.400344,2262.41328 882.305678,2052.99995 803.328347,1964.87995 C728.505682,1881.38662 588.435019,1904.27995 588.435019,1904.27995 C588.435019,1904.27995 588.385685,1904.11995 588.309685,1903.85329 C534.129687,1918.61329 472.355022,1915.37329 430.231023,1904.25329 C364.184358,1886.82662 316.488359,1856.49329 316.488359,1856.49329 C316.488359,1856.49329 214.585695,1792.09329 217.008361,1669.19996 C218.885695,1573.83996 290.447026,1460.31996 289.884359,1452.18663 C283.593693,1361.1733 276.55636,1364.27997 286.053693,1331.8533 C309.112359,1253.1333 635.633684,1285.59997 641.436351,1321.67997 C646.700351,1354.4133 631.529684,1409.14663 639.148351,1482.74663 C651.157684,1598.77329 675.01635,1640.09329 702.159016,1711.65329 C852.096345,1723.81329 948.98701,1808.53329 979.133676,1944.58662 C1010.24034,2084.93328 994.307009,2262.41328 994.307009,2262.41328" id="path14" fill="#FFFFFF"></path>
                    <path d="M509.703021,1910.75995 C478.988355,1910.75995 450.985689,1906.66662 430.988356,1901.38662 C366.188358,1884.29329 318.552359,1854.29329 318.079025,1853.99995 C317.068359,1853.35995 217.611028,1788.98662 219.971028,1669.25329 C221.383028,1597.55996 262.56036,1515.47996 282.34836,1476.03996 C290.464359,1459.86663 293.023026,1454.62663 292.840359,1451.98663 C290.577693,1419.26663 288.259026,1399.02663 286.567026,1384.2533 C283.66436,1358.91997 282.975026,1352.90663 288.89636,1332.6933 C301.152359,1290.83997 406.619023,1282.34663 493.204354,1287.78663 C577.669686,1293.0933 636.529684,1309.83997 638.511017,1322.15997 C640.729684,1335.94663 639.161684,1354.4933 637.345684,1375.9733 C634.896351,1404.94663 631.848351,1440.99996 636.201684,1483.0533 C646.156351,1579.23996 664.407017,1624.75996 685.539016,1677.47996 C690.024349,1688.66662 694.661683,1700.22662 699.388349,1712.69329 C699.793683,1713.77329 700.779016,1714.50662 701.919016,1714.59996 C848.495012,1726.49329 945.920343,1808.39995 976.240342,1945.22662 C1004.81367,2074.14661 993.387009,2236.61328 991.573675,2259.45328 L913.960344,2259.45328 C910.280344,2235.18661 879.476345,2045.39995 805.535013,1962.89328 C734.740348,1883.89329 605.116352,1898.98662 589.497685,1901.13329 C588.901685,1900.86662 588.213685,1900.79995 587.529685,1900.98662 C561.717686,1908.02662 534.80302,1910.75995 509.703021,1910.75995 Z M446.091022,1280.34663 C368.036358,1280.34663 294.208359,1293.47997 283.211026,1331.02663 C276.949693,1352.38663 277.74036,1359.27997 280.679026,1384.91997 C282.365693,1399.63997 284.67636,1419.8133 286.92836,1452.38663 C286.71636,1454.11996 282.021693,1463.47996 277.051026,1473.38663 C257.06836,1513.2133 215.484361,1596.09329 214.045695,1669.13329 C211.619028,1792.27996 313.873692,1858.34662 314.907026,1858.99995 C315.380359,1859.30662 363.743024,1889.77329 429.473689,1907.11995 C467.967022,1917.27995 529.548353,1922.54662 587.567019,1907.11995 C587.991019,1907.25329 588.445685,1907.27995 588.912352,1907.21329 C590.297685,1906.98662 728.268349,1885.55995 801.123013,1966.85328 C878.600345,2053.30662 908.173677,2260.74661 908.467011,2262.82661 C908.667011,2264.29328 909.920344,2265.38661 911.400344,2265.38661 L994.307009,2265.38661 C995.840342,2265.38661 997.120342,2264.21328 997.253675,2262.67994 C997.413675,2260.90661 1012.88034,2083.13328 982.027009,1943.93328 C951.22701,1804.94662 852.617679,1721.51996 704.265682,1708.85329 C699.747016,1696.99996 695.325683,1685.95996 691.040349,1675.27996 C670.073683,1622.97329 651.965684,1577.79996 642.096351,1482.43996 C637.800351,1440.9333 640.823017,1405.19996 643.249684,1376.47997 C645.173684,1353.70663 646.695017,1335.71997 644.361684,1321.2133 C640.800351,1299.07997 552.236353,1285.55997 493.576354,1281.86663 C477.905688,1280.87997 461.904355,1280.34663 446.091022,1280.34663" id="path16" fill="#000000"></path>
                    <path d="M2027.89365,144.85333 L580.611019,144.85333 C535.67102,144.85333 501.421688,185.986662 508.612354,231.333328 L819.87368,2193.89328 C825.599013,2229.98661 856.095012,2256.50661 891.867011,2256.50661 L2339.14697,2256.50661 C2384.09364,2256.50661 2418.34697,2215.37328 2411.14697,2170.03995 L2099.89365,207.479995 C2094.17365,171.386662 2063.66698,144.85333 2027.89365,144.85333" id="path18" fill="#FFFFFF"></path>
                    <path d="M891.867011,2253.54661 C857.375012,2253.54661 828.325679,2228.26661 822.800346,2193.42661 L511.539021,230.866661 C508.191021,209.759995 514.160354,188.413329 527.91502,172.306662 C541.201687,156.746663 560.409686,147.826663 580.611019,147.826663 L2027.89365,147.826663 C2062.38698,147.826663 2091.44031,173.106662 2096.96031,207.946661 L2408.22697,2170.50661 C2411.57364,2191.61328 2405.60031,2212.95994 2391.85364,2229.06661 C2378.56031,2244.62661 2359.36031,2253.54661 2339.14697,2253.54661 L891.867011,2253.54661 Z M2027.89365,141.89333 L580.611019,141.89333 C558.673686,141.89333 537.82302,151.57333 523.409687,168.453329 C508.527021,185.89333 502.067021,208.973328 505.685687,231.799994 L816.947013,2194.35995 C822.932346,2232.09328 854.441679,2259.46661 891.867011,2259.46661 L2339.14697,2259.46661 C2361.09364,2259.46661 2381.94697,2249.78661 2396.36031,2232.90661 C2411.24031,2215.47994 2417.69364,2192.39995 2414.08031,2169.57328 L2102.81365,207.013328 C2096.84031,169.279996 2065.32032,141.89333 2027.89365,141.89333" id="path20" fill="#000000"></path>
                    <path d="M1981.90698,149.959996 L534.620353,149.959996 C489.680354,149.959996 455.431022,191.013329 462.620355,236.279994 L773.883014,2195.43995 C779.605681,2231.46661 810.103013,2257.94661 845.881679,2257.94661 L2293.16031,2257.94661 C2338.10697,2257.94661 2372.34697,2216.87994 2365.16031,2171.62661 L2053.90698,212.466661 C2048.17365,176.426662 2017.68032,149.959996 1981.90698,149.959996" id="path22" fill="#FFFFFF"></path>
                    <path d="M845.881679,2254.98661 C811.383013,2254.98661 782.332347,2229.74661 776.809681,2194.97328 L465.547022,235.813327 C462.204355,214.773328 468.156355,193.493328 481.876355,177.413329 C495.165688,161.853329 514.389687,152.919996 534.620353,152.919996 L1981.90698,152.919996 C2016.40032,152.919996 2045.45365,178.159996 2050.97365,212.933328 L2362.24031,2172.09328 C2365.57364,2193.13328 2359.62697,2214.41328 2345.90697,2230.49328 C2332.61364,2246.05328 2313.38698,2254.98661 2293.16031,2254.98661 L845.881679,2254.98661 Z M1981.90698,146.999996 L534.620353,146.999996 C512.652354,146.999996 491.787021,156.679996 477.368355,173.573329 C462.520355,190.959995 456.079022,213.986661 459.693689,236.746661 L770.956347,2195.90661 C776.940347,2233.57328 808.452347,2260.90661 845.881679,2260.90661 L2293.16031,2260.90661 C2315.13364,2260.90661 2336.00031,2251.22661 2350.41364,2234.33328 C2365.26697,2216.94661 2371.70697,2193.91995 2368.09364,2171.15995 L2056.82698,211.999996 C2050.84032,174.333329 2019.33365,146.999996 1981.90698,146.999996" id="path24" fill="#000000"></path>
                    <path d="M1745.26699,2075.99995 L1325.73367,2075.99995 C1258.68034,2075.99995 1207.73367,2137.42661 1218.907,2204.79994 L1228.707,2263.85328 C1229.707,2269.83994 1234.80034,2274.22661 1240.76034,2274.22661 L1886.96032,2274.22661 C1894.53365,2274.22661 1900.28032,2267.29328 1899.01365,2259.69328 L1889.09365,2199.85328 C1877.22699,2128.34661 1816.44032,2075.99995 1745.26699,2075.99995" id="path26" fill="#FFFFFF"></path>
                    <path d="M1240.76034,2271.26661 C1236.227,2271.26661 1232.387,2267.94661 1231.627,2263.35994 L1221.827,2204.30661 C1216.57367,2172.61328 1225.387,2140.46661 1246.01367,2116.13328 C1266.04034,2092.50661 1295.09367,2078.95995 1325.73367,2078.95995 L1745.26699,2078.95995 C1815.24032,2078.95995 1874.49365,2130.01328 1886.17365,2200.34661 L1896.09365,2260.17328 C1896.56032,2262.98661 1895.78699,2265.83994 1893.96032,2267.99994 C1892.20032,2270.07994 1889.65365,2271.26661 1886.96032,2271.26661 L1240.76034,2271.26661 Z M1745.26699,2073.03995 L1325.73367,2073.03995 C1293.347,2073.03995 1262.65367,2087.34661 1241.49367,2112.30661 C1219.73367,2137.97328 1210.44034,2171.85328 1215.987,2205.27994 L1225.787,2264.33328 C1227.027,2271.78661 1233.32034,2277.18661 1240.76034,2277.18661 L1886.96032,2277.18661 C1891.38699,2277.18661 1895.58699,2275.23994 1898.48032,2271.82661 C1901.42699,2268.34661 1902.69365,2263.74661 1901.94699,2259.21328 L1892.01365,2199.37328 C1879.86699,2126.17328 1818.14699,2073.03995 1745.26699,2073.03995" id="path28" fill="#000000"></path>
                    <path d="M1536.14699,2338.67994 L1536.34699,2339.87994 C1539.72033,2360.46661 1557.14699,2375.54661 1577.56033,2375.54661 C1603.40033,2375.54661 1623.05366,2351.78661 1618.76033,2325.70661 L1618.57366,2324.51994 C1615.18699,2303.91994 1597.76033,2288.83994 1577.36033,2288.83994 C1551.52033,2288.83994 1531.867,2312.59994 1536.14699,2338.67994 Z M1462.85366,2144.97328 L1642.01366,2144.97328 C1648.80033,2144.97328 1654.60033,2149.46661 1655.69366,2156.33328 L1680.24032,2315.94661 C1690.08032,2379.47994 1642.09366,2437.03994 1579.21366,2437.03994 C1528.92033,2437.03994 1486.09366,2399.78661 1478.20033,2348.97328 L1449.17366,2160.83995 C1447.81366,2152.21328 1454.32033,2144.97328 1462.85366,2144.97328" id="path30" fill="#FFFFFF"></path>
                    <path d="M1539.06699,2338.19994 C1537.13366,2326.41328 1540.41366,2314.49328 1548.06699,2305.47994 C1555.44033,2296.78661 1566.12033,2291.81328 1577.36033,2291.81328 C1596.38699,2291.81328 1612.49366,2305.75994 1615.65366,2324.99994 L1615.84033,2326.18661 C1617.77366,2337.97327 1614.49366,2349.90661 1606.84033,2358.91994 C1599.46699,2367.59994 1588.78699,2372.58661 1577.56033,2372.58661 C1558.52033,2372.58661 1542.42699,2358.62661 1539.26699,2339.39994 L1539.06699,2338.19994 Z M1577.36033,2285.87994 C1564.37366,2285.87994 1552.05366,2291.62661 1543.54699,2301.63994 C1534.77366,2311.98661 1531.00033,2325.65328 1533.227,2339.15994 C1533.227,2339.15994 1533.227,2339.15994 1533.227,2339.15994 L1533.41366,2340.35994 C1537.05366,2362.46661 1555.61366,2378.50661 1577.56033,2378.50661 C1590.53366,2378.50661 1602.85366,2372.75994 1611.36033,2362.75994 C1620.14699,2352.41327 1623.90699,2338.73327 1621.69366,2325.22661 L1621.49366,2324.03994 C1617.86699,2301.91994 1599.30699,2285.87994 1577.36033,2285.87994 Z M1579.21366,2434.07994 C1530.08033,2434.07994 1488.827,2398.09327 1481.13366,2348.51994 L1452.107,2160.38661 C1451.60033,2157.15995 1452.427,2154.07995 1454.45366,2151.71995 C1456.507,2149.31995 1459.56033,2147.94661 1462.85366,2147.94661 L1642.01366,2147.94661 C1647.52033,2147.94661 1651.93366,2151.58661 1652.76033,2156.79995 L1677.30699,2316.39994 C1681.94699,2346.35994 1673.40032,2376.63994 1653.84033,2399.45327 C1634.98699,2421.45327 1607.78699,2434.07994 1579.21366,2434.07994 L1579.21366,2434.07994 Z M1642.01366,2142.01328 L1462.85366,2142.01328 C1457.827,2142.01328 1453.12033,2144.14661 1449.947,2147.86661 C1446.827,2151.51995 1445.48033,2156.41328 1446.25366,2161.29328 L1475.267,2349.42661 C1483.427,2401.90661 1527.147,2439.99994 1579.21366,2439.99994 C1609.52033,2439.99994 1638.36033,2426.62661 1658.34699,2403.31994 C1679.02699,2379.17327 1688.08032,2347.17327 1683.16032,2315.49328 L1658.61366,2155.87995 C1657.32033,2147.71995 1650.49366,2142.01328 1642.01366,2142.01328" id="path32" fill="#000000"></path>
                    <path d="M1643.80033,1720.59996 L1518.37366,926.306644 C1517.387,920.05331 1519.16033,913.719977 1523.24033,908.946644 C1527.187,904.333311 1532.907,901.679977 1538.90699,901.679977 L1599.58699,901.679977 C1609.85366,901.679977 1618.48033,909.186644 1620.12033,919.53331 L1745.57366,1713.82662 C1746.56032,1720.07996 1744.78699,1726.41329 1740.70699,1731.18662 C1736.76032,1735.79996 1731.05366,1738.45329 1725.04032,1738.45329 L1664.33366,1738.45329 C1654.06699,1738.45329 1645.44033,1730.94662 1643.80033,1720.59996 L1643.80033,1720.59996 Z M1599.58699,895.746644 L1538.90699,895.746644 C1531.16033,895.746644 1523.81366,899.159978 1518.73366,905.093311 C1513.53366,911.186644 1511.267,919.25331 1512.52033,927.226643 L1637.94699,1721.51996 C1640.04033,1734.77329 1651.13366,1744.38662 1664.33366,1744.38662 L1725.04032,1744.38662 C1732.78699,1744.38662 1740.13366,1740.97329 1745.21366,1735.03996 C1750.41366,1728.93329 1752.68032,1720.86662 1751.42699,1712.90662 L1625.97366,918.61331 C1623.88033,905.359977 1612.78699,895.746644 1599.58699,895.746644" id="path34" fill="#000000"></path>
                    <path d="M1453.187,1534.57329 C1442.88033,1534.57329 1434.24033,1527.02663 1432.64033,1516.63996 L1341.60033,926.226644 C1340.64033,919.986644 1342.427,913.679977 1346.507,908.919977 C1350.45367,904.319977 1356.147,901.679977 1362.147,901.679977 L1422.85366,901.679977 C1433.147,901.679977 1441.787,909.226644 1443.387,919.61331 L1534.467,1510.02663 C1535.427,1516.26663 1533.64033,1522.5733 1529.56033,1527.3333 C1525.61366,1531.9333 1519.907,1534.57329 1513.92033,1534.57329 L1453.187,1534.57329 Z M1422.85366,895.746644 L1362.147,895.746644 C1354.427,895.746644 1347.08033,899.146644 1342.00033,905.053311 C1336.80033,911.133311 1334.52033,919.17331 1335.747,927.13331 L1426.787,1517.5333 L1429.707,1517.0933 L1426.787,1517.5333 C1428.84033,1530.83996 1439.93366,1540.50663 1453.187,1540.50663 L1513.92033,1540.50663 C1521.64033,1540.50663 1528.987,1537.10663 1534.05366,1531.18663 C1539.26699,1525.11996 1541.54699,1517.07996 1540.32033,1509.11996 L1449.25366,918.706644 C1447.20033,905.413311 1436.09366,895.746644 1422.85366,895.746644" id="path36" fill="#000000"></path>
                    <path d="M1232.92034,1363.74663 L1164.97367,926.25331 C1164.00034,919.999977 1165.787,913.69331 1169.867,908.933311 C1173.81367,904.319977 1179.52034,901.679977 1185.507,901.679977 L1246.21367,901.679977 C1256.507,901.679977 1265.13367,909.213311 1266.747,919.586644 L1334.72033,1357.0933 C1335.69367,1363.3333 1333.907,1369.6533 1329.84033,1374.4133 C1325.88033,1379.02663 1320.187,1381.66663 1314.187,1381.66663 L1253.45367,1381.66663 C1243.17367,1381.66663 1234.53367,1374.1333 1232.92034,1363.74663 L1232.92034,1363.74663 Z M1246.21367,895.746644 L1185.507,895.746644 C1177.787,895.746644 1170.44034,899.146644 1165.36034,905.066644 C1160.16034,911.146644 1157.88034,919.199977 1159.12034,927.159977 L1227.067,1364.6533 C1229.13367,1377.94663 1240.227,1387.58663 1253.45367,1387.58663 L1314.187,1387.58663 C1321.92033,1387.58663 1329.25367,1384.19997 1334.33367,1378.26663 C1339.547,1372.18663 1341.81367,1364.1333 1340.587,1356.1733 L1272.61367,918.679977 C1270.547,905.399977 1259.44034,895.746644 1246.21367,895.746644" id="path38" fill="#000000"></path>
                    <path d="M1030.25367,1211.34664 L1030.28034,1211.34664 L1030.25367,1211.34664 Z M1053.70701,1228.75997 C1043.44034,1228.75997 1034.81367,1221.23997 1033.17367,1210.87997 L988.373675,926.29331 C987.400342,920.039977 989.173675,913.719977 993.253675,908.946644 C997.200342,904.319977 1002.90701,901.679977 1008.90701,901.679977 L1069.60034,901.679977 C1079.86701,901.679977 1088.49367,909.186644 1090.13367,919.546644 L1134.96034,1204.1333 C1135.93367,1210.38664 1134.16034,1216.70664 1130.08034,1221.47997 C1126.13367,1226.10664 1120.42701,1228.75997 1114.42701,1228.75997 L1053.70701,1228.75997 Z M1069.60034,895.746644 L1008.90701,895.746644 C1001.17368,895.746644 993.827009,899.159978 988.747009,905.093311 C983.533675,911.186644 981.267009,919.25331 982.520342,927.21331 L1027.32034,1211.79997 C1029.41367,1225.0533 1040.50701,1234.67997 1053.70701,1234.67997 L1114.42701,1234.67997 C1122.16034,1234.67997 1129.50701,1231.27997 1134.58701,1225.3333 C1139.80034,1219.23997 1142.067,1211.1733 1140.81367,1203.2133 L1095.98701,918.626644 C1093.89367,905.373311 1082.80034,895.746644 1069.60034,895.746644" id="path40" fill="#000000"></path>
                    <path d="M833.749679,1084.82664 L811.23368,925.97331 C810.35368,919.759977 812.184346,913.519977 816.259013,908.826644 C820.200346,904.279977 825.871013,901.679977 831.813679,901.679977 L892.613678,901.679977 C902.880344,901.679977 911.720344,909.493311 913.200344,919.879977 L935.733677,1078.73331 C936.613677,1084.93331 934.78701,1091.18664 930.70701,1095.87997 C926.773677,1100.42664 921.093677,1103.02664 915.160344,1103.02664 L854.329679,1103.02664 C844.067012,1103.02664 835.219013,1095.19997 833.749679,1084.82664 L833.749679,1084.82664 Z M892.613678,895.746644 L831.813679,895.746644 C824.153679,895.746644 816.852346,899.093311 811.784346,904.933311 C806.584347,910.919977 804.244347,918.89331 805.36568,926.799977 L827.881679,1085.65331 C829.765679,1098.93331 841.135012,1108.95997 854.329679,1108.95997 L915.160344,1108.95997 C922.813677,1108.95997 930.120343,1105.59997 935.18701,1099.75997 C940.38701,1093.77331 942.720343,1085.81331 941.600343,1077.89331 L919.06701,919.039977 C917.173677,905.759977 905.813677,895.746644 892.613678,895.746644" id="path42" fill="#000000"></path>
                    <path d="M805.64968,760.893314 C786.663014,760.893314 771.215014,745.119981 771.215014,725.746649 C771.215014,706.373316 786.663014,690.599983 805.64968,690.599983 C824.636346,690.599983 840.083012,706.373316 840.083012,725.746649 C840.083012,745.119981 824.636346,760.893314 805.64968,760.893314 Z M805.64968,684.679983 C783.395014,684.679983 765.288348,703.106649 765.288348,725.746649 C765.288348,748.386648 783.395014,766.813314 805.64968,766.813314 C827.903013,766.813314 846.009679,748.386648 846.009679,725.746649 C846.009679,703.106649 827.903013,684.679983 805.64968,684.679983" id="path44" fill="#000000"></path>
                    <path d="M773.697681,603.839985 C754.711015,603.839985 739.263015,588.079985 739.263015,568.693319 C739.263015,549.319986 754.711015,533.546653 773.697681,533.546653 C792.684347,533.546653 808.131013,549.319986 808.131013,568.693319 C808.131013,588.079985 792.684347,603.839985 773.697681,603.839985 Z M773.697681,527.626653 C751.441681,527.626653 733.336348,546.05332 733.336348,568.693319 C733.336348,591.346652 751.441681,609.759985 773.697681,609.759985 C795.951013,609.759985 814.056346,591.346652 814.056346,568.693319 C814.056346,546.05332 795.951013,527.626653 773.697681,527.626653" id="path46" fill="#000000"></path>
                    <path d="M745.503015,439.133322 C726.516349,439.133322 711.069682,423.359989 711.069682,403.986657 C711.069682,384.59999 726.516349,368.839991 745.503015,368.839991 C764.491014,368.839991 779.937681,384.59999 779.937681,403.986657 C779.937681,423.359989 764.491014,439.133322 745.503015,439.133322 Z M745.503015,362.919991 C723.249682,362.919991 705.144349,381.333324 705.144349,403.986657 C705.144349,426.626656 723.249682,445.053322 745.503015,445.053322 C767.756348,445.053322 785.863014,426.626656 785.863014,403.986657 C785.863014,381.333324 767.756348,362.919991 745.503015,362.919991" id="path48" fill="#000000"></path>
                    <path d="M1315.01367,722.786649 L914.667011,722.786649 C913.027011,722.786649 911.707011,724.106649 911.707011,725.746649 C911.707011,727.386648 913.027011,728.706648 914.667011,728.706648 L1315.01367,728.706648 C1316.64033,728.706648 1317.97367,727.386648 1317.97367,725.746649 C1317.97367,724.106649 1316.64033,722.786649 1315.01367,722.786649" id="path50" fill="#000000"></path>
                    <path d="M1289.947,567.013319 L1248.28034,567.013319 C1246.65367,567.013319 1245.32034,568.333319 1245.32034,569.973319 C1245.32034,571.613319 1246.65367,572.933319 1248.28034,572.933319 L1289.947,572.933319 C1291.587,572.933319 1292.907,571.613319 1292.907,569.973319 C1292.907,568.333319 1291.587,567.013319 1289.947,567.013319" id="path52" fill="#FFFFFF"></path>
                    <path d="M1172.16034,567.013319 L889.600344,567.013319 C887.967011,567.013319 886.640345,568.333319 886.640345,569.973319 C886.640345,571.613319 887.967011,572.933319 889.600344,572.933319 L1172.16034,572.933319 C1173.80034,572.933319 1175.12034,571.613319 1175.12034,569.973319 C1175.12034,568.333319 1173.80034,567.013319 1172.16034,567.013319" id="path54" fill="#000000"></path>
                    <path d="M1257.37367,406.133323 L857.024345,406.133323 C855.388345,406.133323 854.061679,407.453323 854.061679,409.093323 C854.061679,410.733323 855.388345,412.053323 857.024345,412.053323 L1257.37367,412.053323 C1259.00034,412.053323 1260.33367,410.733323 1260.33367,409.093323 C1260.33367,407.453323 1259.00034,406.133323 1257.37367,406.133323" id="path56" fill="#000000"></path>
                    <path d="M833.188346,1445.02663 C833.188346,1445.02663 893.053678,1445.91996 924.333677,1459.4933 C955.627009,1473.06663 955.133676,1449.51996 946.280343,1441.23996 C939.10701,1434.51996 895.880344,1410.4133 857.127012,1407.6133 L833.188346,1445.02663" id="path58" fill="#FFFFFF"></path>
                    <path d="M838.508346,1442.2133 L858.663012,1410.70663 C896.640344,1414.07996 938.280343,1437.79996 944.253676,1443.39996 C947.853676,1446.7733 950.02701,1453.7733 947.413676,1457.74663 C944.640343,1461.9733 936.66701,1461.6133 925.520344,1456.7733 C899.160344,1445.34663 853.957679,1442.7733 838.508346,1442.2133 L838.508346,1442.2133 Z M857.127012,1404.6533 C856.121679,1404.6533 855.179012,1405.15996 854.632345,1406.0133 L830.692346,1443.43996 C830.112346,1444.34663 830.069679,1445.4933 830.577679,1446.43996 C831.087013,1447.38663 832.069679,1447.9733 833.144346,1447.99996 C833.736346,1447.99996 892.787011,1449.02663 923.160344,1462.2133 C942.38701,1470.55996 949.720343,1465.03996 952.360343,1460.99996 C956.707009,1454.38663 953.720343,1444.1333 948.30701,1439.06663 C940.02701,1431.31996 895.880344,1407.4533 857.341679,1404.6533 C857.269679,1404.6533 857.197679,1404.6533 857.127012,1404.6533" id="path60" fill="#000000"></path>
                    <path d="M745.863015,1467.46663 L775.555014,1526.10663 L803.100347,1510.10663 C804.619013,1509.2133 805.911013,1507.98663 806.867013,1506.50663 L808.599013,1503.83996 C810.77768,1500.46663 814.603013,1498.5333 818.552346,1498.7733 C820.696346,1498.90663 822.848346,1498.39996 824.731013,1497.30663 L1029.56034,1378.46663 C1031.25367,1377.4933 1032.80034,1376.2933 1034.18701,1374.90663 L1076.49367,1332.3733 L1020.04034,1342.2133 C1016.97367,1342.74663 1013.97367,1343.67997 1011.12034,1344.99997 L796.84968,1443.91996 C795.02168,1444.75996 793.44968,1446.0933 792.30968,1447.75996 L792.024347,1448.1733 C789.835014,1451.3733 786.13768,1453.22663 782.316347,1453.0133 L780.387014,1452.90663 C778.620347,1452.8133 776.844347,1453.15996 775.217681,1453.90663 L745.863015,1467.46663" id="path62" fill="#FFFFFF"></path>
                    <path d="M782.888347,1455.98663 C787.463014,1455.98663 791.848347,1453.67996 794.471014,1449.8533 L794.756347,1449.42663 C795.59368,1448.2133 796.748347,1447.22663 798.091013,1446.6133 L1012.36034,1347.67997 C1014.97367,1346.47997 1017.73367,1345.6133 1020.54701,1345.11997 L1067.81367,1336.8933 L1032.08034,1372.8133 C1030.88034,1374.0133 1029.53367,1375.0533 1028.06701,1375.90663 L823.244346,1494.74663 C821.86168,1495.54663 820.299013,1495.90663 818.739013,1495.8133 C813.680346,1495.4933 808.875013,1497.95996 806.111013,1502.22663 L804.380347,1504.90663 C803.680347,1505.98663 802.723013,1506.8933 801.60968,1507.5333 L776.781681,1521.9733 L749.893681,1468.86663 L776.459014,1456.59996 C777.644347,1456.0533 778.944347,1455.79996 780.228347,1455.86663 L782.157681,1455.9733 C782.400347,1455.98663 782.64568,1455.98663 782.888347,1455.98663 L782.888347,1455.98663 Z M1076.49367,1329.4133 C1076.32034,1329.4133 1076.16034,1329.42663 1075.98701,1329.4533 L1019.53367,1339.2933 C1016.20034,1339.86663 1012.96034,1340.87997 1009.88034,1342.30663 L795.607013,1441.22663 C793.29368,1442.2933 791.308347,1443.9733 789.864347,1446.07996 L789.57768,1446.50663 C787.97768,1448.83996 785.27768,1450.19996 782.476347,1450.0533 L780.545681,1449.94663 C778.307014,1449.82663 776.035014,1450.26663 773.976347,1451.2133 L744.623015,1464.7733 C743.891015,1465.10663 743.328348,1465.7333 743.065681,1466.4933 C742.800348,1467.23996 742.857681,1468.07996 743.220348,1468.79996 L772.912347,1527.4533 C773.280347,1528.1733 773.933681,1528.71996 774.716347,1528.94663 C775.495014,1529.18663 776.339014,1529.07996 777.045681,1528.66663 L804.588347,1512.66663 C806.50168,1511.54663 808.151013,1509.98663 809.35368,1508.11996 L811.084346,1505.4533 C812.68968,1502.9733 815.504346,1501.54663 818.368346,1501.7333 C821.115013,1501.90663 823.821679,1501.2533 826.217679,1499.86663 L1031.05367,1381.03997 C1032.96034,1379.91997 1034.72034,1378.55997 1036.28034,1376.99997 L1078.60034,1334.46663 C1079.50701,1333.54663 1079.72034,1332.14663 1079.12034,1330.99997 C1078.60034,1330.0133 1077.58701,1329.4133 1076.49367,1329.4133" id="path64" fill="#000000"></path>
                    <path d="M1023.73367,1355.83997 C1023.33367,1355.83997 1022.93367,1355.91997 1022.54701,1356.0933 C1021.05367,1356.74663 1020.37367,1358.4933 1021.02701,1359.98663 L1028.84034,1377.7333 C1029.49367,1379.22663 1031.25367,1379.90663 1032.74701,1379.23997 C1034.24034,1378.58663 1034.92034,1376.83997 1034.25367,1375.3333 L1026.45367,1357.59997 C1025.96034,1356.4933 1024.88034,1355.83997 1023.73367,1355.83997" id="path66" fill="#000000"></path>
                    <path d="M727.929682,1552.02663 L772.519014,1527.98663 C774.803014,1526.74663 775.673681,1523.90663 774.472347,1521.59996 L748.307015,1471.4133 C747.084348,1469.06663 744.189681,1468.1733 741.865682,1469.42663 L697.375016,1493.42663 C688.451016,1498.22663 684.927016,1509.2533 689.505683,1518.03996 L703.479016,1544.83996 C708.057682,1553.62663 719.004349,1556.83996 727.929682,1552.02663" id="path68" fill="#000000"></path>
                    <path d="M719.167015,1551.30663 C717.680349,1551.30663 716.191015,1551.07996 714.740349,1550.63996 C710.980349,1549.47996 707.915016,1546.93329 706.105682,1543.46663 L692.133683,1516.66663 C688.307016,1509.3333 691.288349,1500.06663 698.781683,1496.02663 L743.272348,1472.03996 C743.693681,1471.8133 744.172348,1471.75996 744.627015,1471.90663 C745.084348,1472.03996 745.457681,1472.35996 745.680348,1472.78663 L771.845681,1522.9733 C772.295014,1523.83996 771.967014,1524.90663 771.112347,1525.3733 L726.523015,1549.41329 C724.204349,1550.66663 721.689682,1551.30663 719.167015,1551.30663 L719.167015,1551.30663 Z M744.099015,1465.8933 C742.843015,1465.8933 741.599015,1466.2133 740.460348,1466.82663 L695.968349,1490.8133 C685.64035,1496.38663 681.563016,1509.2133 686.879016,1519.39996 L700.852349,1546.21329 C703.399016,1551.09329 707.713682,1554.67996 713.001682,1556.30663 C718.441682,1557.97329 724.241682,1557.38663 729.335015,1554.63996 L773.924347,1530.58663 C777.615014,1528.59996 779.039014,1523.94663 777.100347,1520.22663 L750.935015,1470.03996 C749.972348,1468.19996 748.349681,1466.8533 746.364348,1466.23996 C745.617681,1466.0133 744.856348,1465.8933 744.099015,1465.8933" id="path70" fill="#000000"></path>
                    <path d="M793.04968,1458.7333 C792.57768,1458.7333 792.099014,1458.8533 791.652347,1459.0933 C790.211014,1459.86663 789.667014,1461.6533 790.439014,1463.10663 L805.208347,1490.6933 C805.983013,1492.1333 807.775013,1492.67996 809.220346,1491.90663 C810.66168,1491.1333 811.20568,1489.3333 810.43368,1487.8933 L795.664347,1460.30663 C795.12968,1459.30663 794.10568,1458.7333 793.04968,1458.7333" id="path72" fill="#000000"></path>
                    <path d="M889.147011,1437.66663 C888.656345,1437.66663 888.157678,1437.78663 887.699011,1438.03996 L826.633679,1472.31996 C825.207013,1473.11996 824.699013,1474.91996 825.500346,1476.34663 C826.301679,1477.7733 828.104346,1478.2933 829.533679,1477.47996 L890.600344,1443.2133 C892.027011,1442.4133 892.533678,1440.59996 891.733678,1439.1733 C891.187011,1438.2133 890.187011,1437.66663 889.147011,1437.66663" id="path74" fill="#000000"></path>
                    <path d="M1010.02701,1367.1333 C1009.53367,1367.1333 1009.04034,1367.2533 1008.58701,1367.50663 L984.733675,1380.7733 C983.307009,1381.5733 982.800342,1383.3733 983.587009,1384.8133 C984.387009,1386.23997 986.200342,1386.74663 987.627009,1385.95997 L1011.46701,1372.67997 C1012.89367,1371.8933 1013.41367,1370.07997 1012.61367,1368.6533 C1012.08034,1367.67997 1011.06701,1367.1333 1010.02701,1367.1333" id="path76" fill="#000000"></path>
                    <path d="M739.681682,1486.79996 C739.200348,1486.79996 738.712348,1486.91996 738.260348,1487.1733 L704.193682,1505.8533 C702.760349,1506.63996 702.233683,1508.43996 703.020349,1509.87996 C703.807016,1511.30663 705.604349,1511.83996 707.044349,1511.0533 L741.109682,1492.3733 C742.543015,1491.58663 743.069681,1489.7733 742.283015,1488.34663 C741.744348,1487.35996 740.729682,1486.79996 739.681682,1486.79996" id="path78" fill="#FFFFFF"></path>
                    <path d="M725.221682,1421.58663 C725.221682,1421.58663 778.195014,1414.07996 813.923013,1441.66663 C844.313679,1465.14663 905.853677,1397.94663 911.147011,1389.4133 C918.640344,1377.3333 902.147011,1358.35997 883.109678,1369.10663 C883.109678,1369.10663 878.071011,1339.15997 836.976346,1334.1333 C795.88168,1329.11997 778.353681,1356.02663 767.328348,1360.0533 C756.301681,1364.06663 724.717682,1364.2933 724.717682,1364.2933 L725.221682,1421.58663" id="path80" fill="#FFFFFF"></path>
                    <path d="M727.705682,1367.2133 C735.948348,1367.03997 758.889681,1366.27997 768.343014,1362.83997 C771.660347,1361.62663 775.080347,1358.94663 779.409681,1355.54663 C790.57768,1346.7733 807.44968,1333.51997 836.615012,1337.07997 C874.867012,1341.75997 879.991011,1368.47997 880.191011,1369.6133 C880.356345,1370.55997 880.973678,1371.3733 881.843011,1371.78663 C882.717678,1372.19997 883.732345,1372.15997 884.567011,1371.6933 C893.853678,1366.43997 901.773678,1369.35997 906.080344,1373.83997 C909.480344,1377.38663 911.587011,1383.0933 908.627011,1387.8533 C905.093677,1393.54663 865.700345,1437.54663 834.971013,1443.10663 C827.151013,1444.51996 820.855013,1443.27996 815.735013,1439.3333 C784.22968,1414.98663 740.581682,1417.0933 728.156349,1418.27996 L727.705682,1367.2133 Z M826.908346,1330.54663 C801.64168,1330.54663 786.308347,1342.58663 775.748347,1350.87997 C771.991014,1353.82663 768.744348,1356.38663 766.313681,1357.26663 C755.889681,1361.06663 725.007015,1361.31997 724.696349,1361.3333 C723.909682,1361.3333 723.157682,1361.6533 722.605682,1362.2133 C722.053682,1362.7733 721.747015,1363.5333 721.753576,1364.31997 L722.259015,1421.6133 C722.265682,1422.46663 722.641682,1423.27996 723.289682,1423.83996 C723.935015,1424.38663 724.783015,1424.63996 725.636349,1424.51996 C726.156349,1424.4533 777.817681,1417.51996 812.112346,1444.0133 C818.544346,1448.98663 826.585679,1450.63996 836.024346,1448.9333 C868.856345,1442.99996 909.467011,1397.74663 913.667011,1390.9733 C917.66701,1384.51997 916.333677,1375.98663 910.347011,1369.74663 C905.293677,1364.46663 895.853678,1360.4133 884.985678,1364.90663 C881.993678,1356.27997 871.301678,1335.34663 837.336346,1331.19997 C833.681679,1330.74663 830.209679,1330.54663 826.908346,1330.54663" id="path82" fill="#000000"></path>
                    <path d="M365.295024,1847.57329 C365.295024,1847.57329 292.736359,1817.05329 254.42436,1692.77329 C233.279028,1624.17329 237.153694,1526.35996 341.431025,1396.34663 C362.287024,1370.3333 391.580357,1344.46663 424.653689,1340.7333 L741.576348,1337.6533 L740.167015,1439.10663 C740.167015,1439.10663 494.391021,1471.03996 457.451022,1484.9333 C424.733689,1497.23996 377.348357,1657.43996 372.416357,1736.03996 L365.295024,1847.57329" id="path84" fill="#FFFFFF"></path>
                    <path d="M741.576348,1334.6933 C741.565682,1334.6933 741.556348,1334.6933 741.547015,1334.6933 L424.625689,1337.7733 C424.523023,1337.7733 424.423023,1337.7733 424.321689,1337.78663 C388.212357,1341.86663 358.057691,1370.87997 339.119025,1394.4933 C327.884359,1408.4933 317.049692,1422.6933 306.916359,1436.67996 C305.956359,1437.99996 306.251026,1439.8533 307.576359,1440.8133 C308.901692,1441.7733 310.755026,1441.47996 311.713692,1440.15996 C321.789692,1426.2533 332.567025,1412.1333 343.743025,1398.19997 C361.956358,1375.47997 390.800357,1347.6133 424.836356,1343.6933 L738.571015,1340.6533 L737.241682,1436.50663 C709.617682,1440.11996 491.649688,1468.90663 456.408355,1482.15996 C426.980356,1493.22663 392.18969,1604.41329 377.941691,1676.07996 C377.624357,1677.67996 378.665691,1679.23996 380.271024,1679.55996 C381.876357,1679.87996 383.43769,1678.83996 383.755024,1677.22662 C400.160357,1594.70663 434.889689,1496.58663 458.495022,1487.70663 C494.693688,1474.0933 738.095015,1442.3733 740.549682,1442.0533 C742.011015,1441.8533 743.111015,1440.62663 743.131015,1439.14663 L744.539219,1337.6933 C744.548348,1336.8933 744.237681,1336.1333 743.675015,1335.55997 C743.119015,1335.0133 742.363015,1334.6933 741.576348,1334.6933" id="path86" fill="#000000"></path>
                    <path d="M1010.98701,2250.85328 C1014.66701,2241.23994 1021.90701,2215.38661 1009.98701,2198.05328 C999.307008,2182.50661 977.000342,2181.87995 964.320343,2195.83995 C957.680343,2203.15994 954.453676,2215.11994 949.480343,2231.99994 C947.040343,2240.29328 943.400343,2246.01328 939.38701,2251.15994 C936.760343,2254.51994 932.74701,2256.47994 928.480344,2256.49328 L890.787011,2256.67994 C890.787011,2256.67994 891.080344,2271.35994 902.053678,2277.25328 C911.653677,2282.39994 936.50701,2278.14661 938.440343,2281.06661 C960.160343,2313.73328 996.147008,2289.53328 1010.98701,2250.85328" id="path88" fill="#FFFFFF"></path>
                    <path d="M894.093678,2259.62661 L928.493677,2259.46661 C933.720343,2259.43994 938.533677,2257.07994 941.733677,2252.98661 C945.440343,2248.22661 949.58701,2242.11994 952.333676,2232.83994 L953.213676,2229.81328 C957.573676,2214.94661 960.733676,2204.19994 966.520343,2197.82661 C972.187009,2191.58661 980.187009,2188.31995 988.453675,2188.87995 C996.213675,2189.39995 1003.17367,2193.35995 1007.54701,2199.71995 C1019.69367,2217.38661 1010.24034,2244.53328 1008.21367,2249.79994 C999.080342,2273.61328 981.600342,2291.47994 965.707009,2293.23994 C956.067009,2294.30661 947.720343,2289.66661 940.90701,2279.42661 C939.253677,2276.94661 935.480343,2276.89328 926.333677,2276.99994 C918.70701,2277.09328 908.280344,2277.22661 903.453677,2274.63994 C896.960344,2271.15994 894.800344,2263.78661 894.093678,2259.62661 Z M986.627009,2182.89328 C977.347009,2182.89328 968.520343,2186.81328 962.133676,2193.83995 C955.42701,2201.22661 952.120343,2212.51994 947.533676,2228.14661 L946.640343,2231.15994 C944.18701,2239.49328 940.42701,2245.02661 937.053677,2249.33328 C934.98701,2251.98661 931.853677,2253.51994 928.46701,2253.53328 L890.773678,2253.71994 C889.987011,2253.71994 889.227011,2254.03994 888.667011,2254.61328 C888.112345,2255.18661 887.809678,2255.94661 887.825074,2256.74661 C887.840345,2257.41328 888.297678,2273.22661 900.653678,2279.85328 C906.827011,2283.15994 917.680344,2283.02661 926.400344,2282.91994 C930.160343,2282.87994 934.760343,2282.82661 936.30701,2283.21328 C946.360343,2297.98661 958.173676,2300.03994 966.360343,2299.13328 C984.653675,2297.10661 1003.69367,2278.13328 1013.74701,2251.91994 L1013.74701,2251.91994 C1015.96034,2246.17328 1026.25367,2216.47994 1012.44034,2196.37328 C1007.02701,2188.50661 998.427008,2183.61328 988.853675,2182.95995 C988.107009,2182.91995 987.373675,2182.89328 986.627009,2182.89328" id="path90" fill="#000000"></path>
                    <polyline id="path92" fill="#FFFFFF" points="394.103024 372.786657 371.004357 261.893327 431.477689 244.773327 464.919022 352.733325 394.103024 372.786657"></polyline>
                    <path d="M374.468357,263.999993 L429.501689,248.413327 L461.191022,350.706658 L396.356357,369.066657 L374.468357,263.999993 Z M431.477689,241.813327 C431.211023,241.813327 430.939023,241.839994 430.669689,241.919994 L370.197691,259.039994 C368.701691,259.46666 367.787024,260.973327 368.104358,262.493327 L391.203024,373.386657 C391.371024,374.186657 391.86569,374.893324 392.568357,375.319991 C393.272357,375.746657 394.120357,375.853324 394.911024,375.626657 L465.727022,355.586658 C466.495022,355.359991 467.143022,354.839991 467.523022,354.146658 C467.904355,353.439991 467.987022,352.613325 467.748355,351.853325 L434.307023,243.893327 C433.913689,242.626661 432.744356,241.813327 431.477689,241.813327" id="path94" fill="#000000"></path>
                    <path d="M351.001691,168.439996 C351.685691,157.773329 364.733691,149.21333 375.277691,147.61333 C411.955023,142.066663 498.161688,144.41333 521.576354,142.799996 C551.96302,140.69333 609.036351,142.959996 611.245685,162.346663 C613.941685,185.999995 588.463019,220.493328 527.489687,239.386661 C495.957688,249.159994 462.604355,297.573326 447.845689,298.439993 C433.085689,299.306659 406.964357,261.06666 406.964357,261.06666 L364.943024,275.359993 C364.943024,275.359993 347.537691,222.559994 351.001691,168.439996" id="path96" fill="#FFFFFF"></path>
                    <path d="M366.876358,271.573327 C363.407024,259.90666 351.025691,214.453328 353.960358,168.626662 C354.523025,159.826663 365.879024,152.039996 375.720357,150.546663 C399.51369,146.946663 443.848356,146.706663 479.469688,146.506663 C497.783021,146.41333 513.597687,146.319996 521.780354,145.759996 C555.628353,143.41333 606.535018,147.17333 608.301685,162.679996 C610.959018,185.986662 583.752352,218.853328 526.613687,236.559994 C508.485687,242.173327 489.836354,260.039993 474.852355,274.38666 C463.703022,285.06666 453.171022,295.159993 447.671022,295.479993 C438.107022,296.039993 419.148356,273.639993 409.40969,259.38666 C408.65769,258.293327 407.271023,257.82666 406.008357,258.253327 L366.876358,271.573327 Z M540.708353,139.306663 C529.572353,139.306663 521.636354,139.826663 521.372354,139.839997 C513.376354,140.399996 497.648354,140.479996 479.439021,140.586663 C443.623022,140.786663 399.051023,141.026663 374.833691,144.69333 C362.505691,146.559996 348.799025,156.466663 348.045691,168.253329 C344.584358,222.319994 361.952358,275.759993 362.129691,276.279993 C362.376358,277.039993 362.915024,277.653326 363.623024,278.013326 C364.327024,278.359993 365.145691,278.413326 365.897691,278.159993 L405.80569,264.58666 C411.744356,272.98666 433.499023,302.239992 448.019022,301.399992 C455.693689,300.946659 465.957688,291.119993 478.951021,278.66666 C493.487021,264.74666 511.575021,247.413327 528.36702,242.213327 C591.388352,222.679994 617.032351,186.946662 614.189685,162.013329 C611.937685,142.266663 567.244353,139.306663 540.708353,139.306663" id="path98" fill="#000000"></path>
                    <path d="M556.541686,168.146662 C548.51102,168.146662 539.701687,168.599996 530.373687,169.093329 C516.541687,169.813329 502.240354,170.559996 488.165688,169.919996 C456.217689,168.453329 428.891023,169.719996 411.59369,171.039996 C379.531024,173.466662 378.259024,175.493329 377.780357,176.266662 C377.213691,177.159996 377.172357,178.333329 377.680357,179.266662 C378.461691,180.706662 380.263024,181.239995 381.695024,180.466662 C381.707024,180.466662 381.717691,180.453329 381.729691,180.453329 C386.844357,179.093329 431.388356,173.253329 487.896355,175.839996 C502.259021,176.493329 516.709687,175.733329 530.681687,175.013329 C551.849686,173.906662 571.845686,172.866662 583.400352,177.786662 C584.907019,178.426662 586.647019,177.733329 587.288352,176.226662 C587.928352,174.719996 587.228352,172.973329 585.724352,172.333329 C578.145686,169.106662 568.157686,168.146662 556.541686,168.146662" id="path100" fill="#000000"></path>
                    <path d="M478.275021,206.173328 C477.528355,206.173328 476.780355,206.453328 476.205688,207.026661 C475.035022,208.159995 475.013688,210.039995 476.156355,211.213328 L498.289688,233.866661 C499.433688,235.039994 501.312354,235.053327 502.479021,233.919994 C503.649687,232.773328 503.671021,230.893328 502.528354,229.719994 L480.395021,207.066661 C479.815021,206.479995 479.045688,206.173328 478.275021,206.173328" id="path102" fill="#000000"></path>
                    <polyline id="path104" fill="#FFFFFF" points="66.1043651 378.053324 63.0256985 300.719992 117.009697 287.679993 126.62703 377.506657 66.1043651 378.053324"></polyline>
                    <path d="M66.0830317,303.026659 L114.421697,291.346659 L123.332364,374.573324 L68.9496983,375.066657 L66.0830317,303.026659 Z M117.008364,284.70666 C116.776364,284.70666 116.54303,284.733326 116.312364,284.799993 L62.3296985,297.839993 C60.9563652,298.159993 60.0096986,299.426659 60.0656986,300.826659 L63.1443651,378.173324 C63.2070318,379.759991 64.5163651,381.026657 66.1043651,381.026657 C66.1123651,381.026657 66.1216984,381.026657 66.1323651,381.026657 L126.65503,380.466657 C127.489697,380.466657 128.28303,380.106657 128.83903,379.479991 C129.396363,378.853324 129.661697,378.026657 129.572363,377.199991 L119.95503,287.359993 C119.864364,286.50666 119.41103,285.74666 118.71503,285.253326 C118.21103,284.893326 117.613697,284.70666 117.008364,284.70666" id="path106" fill="#000000"></path>
                    <path d="M125.245697,147.05333 C103.612364,143.999996 68.3030317,142.706663 26.4883661,147.09333 C7.74169986,149.05333 0.431033379,175.119996 3.7230333,188.546662 C12.8923664,225.919994 28.832366,286.173326 55.951032,319.026659 L65.9096984,298.973326 L75.3110315,318.533325 C76.5856981,320.826659 78.8750314,322.386659 81.4763647,322.719992 L101.757698,322.519992 C106.015031,323.066659 109.973697,320.239992 110.856364,316.026659 L114.100364,300.559992 L131.405697,320.519992 L144.912363,173.106662 C146.572363,160.479996 137.820363,148.826663 125.245697,147.05333" id="path108" fill="#FFFFFF"></path>
                    <path d="M55.379032,313.519992 C28.7990327,278.319993 13.3350331,215.293328 6.60036656,187.839995 C4.83103327,180.626662 6.38436656,168.079996 12.7456997,159.026663 C16.5336996,153.639996 21.2616995,150.61333 26.7990327,150.039996 C62.1323652,146.33333 98.7763643,146.306663 124.832364,149.986663 C135.73103,151.519996 143.421696,161.719996 141.97503,172.719996 L129.088363,313.333326 L116.337697,298.626659 C115.601697,297.773326 114.443031,297.413326 113.356364,297.693326 C112.267031,297.986659 111.431031,298.853326 111.200364,299.959993 L107.957697,315.413325 C107.395031,318.093325 104.857697,319.919992 102.131031,319.586659 C101.996364,319.559992 101.861698,319.559992 101.728364,319.559992 L81.6723647,319.746659 C80.0870314,319.493325 78.6870314,318.506659 77.9030314,317.093325 L68.5790317,297.693326 C68.0896984,296.666659 67.060365,296.013326 65.9283651,296.013326 C64.9216984,296.066659 63.7590318,296.639993 63.2550318,297.653326 L55.379032,313.519992 Z M125.245697,147.05333 L125.27503,147.05333 L125.245697,147.05333 Z M79.0803647,141.279996 C64.2323651,141.279996 46.4790322,142.01333 26.1790327,144.146663 C18.9683662,144.906663 12.6456997,148.866663 7.89903319,155.626663 C0.452366712,166.213329 -1.28629991,180.559995 0.845700035,189.253329 C11.8443664,234.079994 27.7896994,289.573326 53.667032,320.919992 C54.3056987,321.693325 55.3003653,322.093325 56.2896986,321.973325 C57.2883653,321.866659 58.1590319,321.253325 58.6043653,320.346659 L65.8656984,305.719992 L72.6403649,319.813325 C74.4456982,323.079992 77.5776981,325.213325 81.1030314,325.653325 C81.233698,325.666659 81.3470314,325.679992 81.5043647,325.679992 L101.600364,325.479992 C107.287031,326.093325 112.579031,322.239992 113.756364,316.639992 L115.773697,307.013326 L129.16703,322.466659 C129.94303,323.359992 131.18303,323.706659 132.313697,323.346659 C133.44303,322.986659 134.248363,321.973325 134.35503,320.799992 L147.86303,173.373329 C149.717696,159.279996 139.764363,146.106663 125.660364,144.119996 C117.941697,143.026663 101.963031,141.279996 79.0803647,141.279996" id="path110" fill="#000000"></path>
                    <path d="M65.1136984,165.479996 C51.2710321,165.479996 36.2976991,166.706662 21.3656995,170.119996 C19.7696996,170.493329 18.7723663,172.079996 19.1363662,173.666662 C19.5016996,175.266662 21.0963662,176.266662 22.6856995,175.906662 C73.5870316,164.266663 126.805697,179.226662 127.336364,179.373329 C128.897697,179.826662 130.55103,178.919996 131.001697,177.346662 C131.45103,175.773329 130.54303,174.133329 128.968363,173.679996 C127.37503,173.226662 99.8230309,165.479996 65.1136984,165.479996" id="path112" fill="#000000"></path>
                    <path d="M52.7163654,222.719994 C51.1243654,222.719994 49.8096988,223.986661 49.7563655,225.586661 C49.7030321,227.226661 50.9843654,228.599994 52.6190321,228.653328 L101.279031,230.266661 C102.887031,230.279994 104.283031,229.039994 104.339031,227.399994 C104.392364,225.759994 103.109697,224.386661 101.475031,224.333328 L52.8163654,222.733328 C52.7830321,222.733328 52.7496987,222.719994 52.7163654,222.719994" id="path114" fill="#000000"></path>
                    <path d="M636.149684,1304.39997 C656.625684,1184.54664 693.852349,889.999978 613.480351,669.66665 C544.31102,480.053321 494.939021,385.626657 475.961688,351.333325 C470.772355,341.973325 460.421689,336.733325 449.817689,338.106658 L400.516357,344.453325 C385.90169,346.333325 375.732357,359.946658 378.057691,374.533324 C396.04569,487.346654 467.493688,1036.47997 448.461689,1087.22664 L142.26703,367.439991 C138.961697,359.799991 131.412363,354.893324 123.11103,354.986658 L71.3870316,355.559991 C59.8656986,355.693324 50.6803655,365.279991 50.9830321,376.826657 C66.2563651,959.426643 236.816361,1053.17331 286.791026,1331.71997 C286.90836,1332.3733 303.155026,1312.79997 303.764359,1312.43997 C353.800358,1283.4533 378.840357,1285.70663 455.608355,1281.51997 C538.64302,1276.9733 615.773685,1308.30663 633.955018,1307.46663 C635.343018,1307.39997 635.912351,1305.78663 636.149684,1304.39997" id="path116" fill="#000000"></path>
                    <path d="M544.672353,1862.47995 L558.823019,1935.05328 C559.833686,1939.93328 563.857686,1943.61328 568.800353,1944.18662 L597.256352,1947.42662 C603.324352,1948.11995 608.187018,1952.77328 609.148351,1958.82662 L615.585685,1999.30662 C615.595018,1999.35995 615.633685,1999.41328 615.689685,1999.45328 L629.209684,2006.77328 C631.899018,2008.22662 632.933684,2011.57328 631.540351,2014.30662 L617.300351,2042.17328 C614.528351,2047.59995 610.719018,2078.22661 604.647018,2077.91995 C604.647018,2077.91995 502.244354,2113.58661 472.124355,2071.07995 C464.144355,2059.81328 463.260355,2044.95995 468.661688,2032.23995 L475.555022,2016.02662 C482.717688,1999.17328 484.315021,1980.22662 478.839021,1962.75995 C476.887021,1956.51995 474.148355,1950.50662 470.648355,1944.85328 L432.165689,1884.85329 C460.123022,1870.81329 490.877688,1863.27995 522.140354,1862.81329 L544.672353,1862.47995" id="path118" fill="#FFFFFF"></path>
                    <path d="M436.452356,1886.03995 C463.083022,1873.21329 492.652354,1866.21329 522.184354,1865.77329 L542.240353,1865.47995 L555.915019,1935.62662 C557.196353,1941.81328 562.236353,1946.41328 568.463019,1947.11995 L596.921685,1950.37328 C601.648352,1950.90662 605.473685,1954.57328 606.221685,1959.29328 L612.659018,1999.77328 C612.805685,2000.67995 613.472351,2001.62662 614.285685,2002.05328 L627.799018,2009.37328 C629.063018,2010.06662 629.557684,2011.66662 628.901684,2012.95995 L614.661685,2040.82662 C613.617685,2042.86662 612.679018,2046.90662 611.233685,2053.31995 C609.787018,2059.74662 606.804352,2072.99995 604.405685,2074.97328 C604.156352,2074.98661 603.911018,2075.03995 603.673685,2075.11995 C602.669685,2075.47995 503.027021,2109.57328 474.541688,2069.35995 C467.433688,2059.33328 466.225688,2045.54662 471.388355,2033.39995 L478.281688,2017.18662 C485.971021,1999.09328 487.172355,1979.45328 481.667021,1961.86662 C479.625688,1955.34662 476.765688,1949.10662 473.167022,1943.29328 L436.452356,1886.03995 Z M544.673686,1859.51995 C544.65902,1859.51995 544.644353,1859.51995 544.629686,1859.51995 L522.09502,1859.85329 C490.577688,1860.31995 459.021689,1868.05329 430.837689,1882.19995 C430.087023,1882.57329 429.531023,1883.25329 429.309689,1884.06662 C429.087023,1884.86662 429.220356,1885.73329 429.672356,1886.43995 L468.155022,1946.45328 C471.467022,1951.79995 474.119022,1957.59995 476.012355,1963.63995 C481.097688,1979.87995 479.967021,1998.06662 472.827022,2014.86662 L465.935022,2031.07995 C459.973689,2045.10662 461.419022,2061.09328 469.707022,2072.78661 C500.056354,2115.62661 596.821685,2083.73328 605.184352,2080.86661 C610.800351,2080.41328 613.435018,2070.53328 617.015018,2054.62662 C618.080351,2049.89328 619.181685,2044.99995 619.939018,2043.51995 L634.179018,2015.65328 C636.287017,2011.51995 634.691018,2006.37328 630.620351,2004.17328 L618.299018,1997.49328 L612.075018,1958.35995 C610.908351,1951.02662 604.953685,1945.31995 597.593685,1944.47995 L569.133686,1941.23995 C565.455019,1940.81328 562.477686,1938.09328 561.724353,1934.45328 L547.580353,1861.90662 C547.308353,1860.51995 546.089686,1859.51995 544.673686,1859.51995" id="path120" fill="#000000"></path>
                    <path d="M524.789687,2032.77328 C519.532354,2045.83995 511.317687,2050.74662 512.855021,2058.15995 C513.783021,2062.63995 517.661687,2065.45328 519.865687,2067.05328 C530.81902,2074.99995 545.22702,2070.14661 574.155019,2064.69328 C610.072351,2057.91995 614.171018,2056.85328 620.948351,2059.53328 C638.176351,2066.34662 647.968351,2087.54661 648.725684,2104.98661 C648.939017,2109.87995 649.36835,2135.85328 627.325684,2149.25328 C611.407018,2158.91995 590.101685,2158.19995 572.887019,2147.46661 C571.380352,2152.51995 568.251019,2159.61328 561.411019,2163.10661 C545.18702,2171.39995 520.988354,2152.79995 512.517687,2146.29328 C504.688354,2140.27995 490.731021,2127.71995 480.732355,2105.62661 C477.539021,2107.41328 465.548355,2113.62661 452.480355,2109.45328 C433.047023,2103.23995 428.272356,2079.49328 427.856356,2077.23995 C422.995023,2050.99995 444.563022,2028.09328 460.848355,2010.81328 C469.823022,2001.27995 474.537688,1997.63995 479.811021,1994.11995 C482.928355,1992.03995 486.951021,1991.89328 490.232354,1993.69328 C490.291021,1993.73328 490.351021,1993.75995 490.411021,1993.79995 C494.719021,1996.17328 496.159021,2001.69328 493.565688,2005.87995 L492.740354,2007.21328 C489.633688,2012.23995 487.512355,2017.83995 486.863021,2023.71995 C486.345688,2028.39995 486.716355,2033.31995 489.724354,2035.83995 C494.580354,2039.91995 502.844354,2037.22662 504.029687,2036.83995 C510.085687,2034.86662 513.885687,2030.38662 516.22302,2026.11995 C518.728354,2021.53328 527.120354,2026.98662 524.789687,2032.77328" id="path122" fill="#000000"></path>
                    <path d="M227.561694,2159.87995 C226.488361,2150.33328 233.480361,2141.57328 243.151027,2140.33328 C247.860361,2139.73328 252.48436,2140.98661 256.161694,2143.87995 C259.76036,2146.70661 262.023027,2150.77328 262.53636,2155.31995 C263.609693,2164.85328 256.617694,2173.62661 246.948361,2174.85328 C242.237694,2175.46661 237.612361,2174.19995 233.936361,2171.31995 C230.337694,2168.49328 228.076361,2164.42661 227.561694,2159.87995 Z M245.464361,2134.26661 C244.448361,2134.26661 243.425694,2134.31995 242.397694,2134.45328 C229.536361,2136.10661 220.240361,2147.79995 221.673695,2160.53328 L221.673695,2160.53328 C222.365694,2166.67995 225.420361,2172.15995 230.276361,2175.97328 C235.212361,2179.85328 241.403027,2181.54661 247.700361,2180.73328 C260.561694,2179.09328 269.857693,2167.38661 268.42436,2154.65328 C267.733693,2148.51995 264.677693,2143.02661 259.823027,2139.21328 C255.69236,2135.97328 250.683027,2134.26661 245.464361,2134.26661" id="path124" fill="#000000"></path>
                    <path d="M156.036363,2090.65328 C155.52303,2090.65328 155.00303,2090.78661 154.529696,2091.06661 L134.772363,2102.75995 C133.364363,2103.59995 132.89903,2105.41328 133.733697,2106.82661 C134.564363,2108.22661 136.384363,2108.69328 137.79103,2107.86661 L157.548363,2096.17328 C158.956363,2095.33328 159.423029,2093.51995 158.588363,2092.10661 C158.035029,2091.17328 157.048363,2090.65328 156.036363,2090.65328" id="path126" fill="#000000"></path>
                    <path d="M202.060362,2063.41328 C201.547028,2063.41328 201.027028,2063.54662 200.553695,2063.82662 L180.796362,2075.51995 C179.387029,2076.35995 178.921696,2078.17328 179.756362,2079.58661 C180.589696,2080.98661 182.409695,2081.45328 183.815029,2080.62661 L203.572362,2068.91995 C204.981695,2068.09328 205.447028,2066.27995 204.612362,2064.86662 C204.060362,2063.93328 203.073695,2063.41328 202.060362,2063.41328" id="path128" fill="#000000"></path>
                    <path d="M149.708363,2049.97328 C149.19503,2049.97328 148.676363,2050.10662 148.201696,2050.38662 C146.793696,2051.22662 146.32703,2053.03995 147.160363,2054.45328 L158.851029,2074.21328 C159.687029,2075.62661 161.496363,2076.09328 162.911029,2075.25328 C164.319029,2074.42661 164.785696,2072.59995 163.952363,2071.19995 L152.261696,2051.42662 C151.70703,2050.49328 150.720363,2049.97328 149.708363,2049.97328" id="path130" fill="#000000"></path>
                    <path d="M176.940362,2096.02661 C176.428362,2096.02661 175.909696,2096.15995 175.435029,2096.43995 C174.027029,2097.26661 173.560362,2099.07995 174.393696,2100.49328 L186.083029,2120.25328 C186.917695,2121.66661 188.729695,2122.13328 190.141695,2121.30661 C191.551029,2120.46661 192.017695,2118.65328 191.184362,2117.23995 L179.495029,2097.47995 C178.941696,2096.54661 177.953696,2096.02661 176.940362,2096.02661" id="path132" fill="#000000"></path>
                    <path d="M2229.32031,2.95999993 L1193.267,2.95999993 C1131.08034,2.95999993 1084.54701,60.0666652 1097.08034,121.01333 L1254.25367,885.439978 C1267.48034,949.73331 1324.04033,995.866642 1389.64033,995.866642 L2278.32031,995.866642 L2229.32031,2.95999993" id="path134" fill="#FFFFFF"></path>
                    <path d="M1389.64033,992.906642 C1325.747,992.906642 1270.027,947.45331 1257.16034,884.853311 L1099.97367,120.41333 C1094.18701,92.2266644 1101.28034,63.2799984 1119.46701,40.9866656 C1137.627,18.7066662 1164.53367,5.91999985 1193.267,5.91999985 L2226.49364,5.91999985 L2275.21364,992.906642 L1389.64033,992.906642 Z M2229.32031,0 L1193.267,0 C1162.747,0 1134.16034,13.573333 1114.86701,37.2399991 C1095.56034,60.9199985 1088.01367,91.6799977 1094.17367,121.61333 L1251.36034,886.039978 C1264.80034,951.386643 1322.947,998.826642 1389.64033,998.826642 L2278.32031,998.826642 C2279.13364,998.826642 2279.90698,998.493308 2280.46698,997.906642 C2281.02698,997.319975 2281.32031,996.533308 2281.28392,995.719975 L2232.28031,2.81333326 C2232.20031,1.23999997 2230.89364,0 2229.32031,0" id="path136" fill="#000000"></path>
                    <path d="M2361.97364,2.95999993 L2160.90698,2.95999993 C2098.72031,2.95999993 2052.18698,60.0666652 2064.72032,121.01333 L2237.84031,962.986643 C2241.78698,982.119975 2258.62698,995.866642 2278.16031,995.866642 L2329.86698,995.866642 C2351.30697,995.866642 2369.14697,979.399976 2370.89364,958.026643 L2441.70697,89.5066644 C2445.50697,42.8933323 2408.72031,2.95999993 2361.97364,2.95999993" id="path138" fill="#FFFFFF"></path>
                    <path d="M2278.16031,992.906642 C2260.12031,992.906642 2244.38698,980.066642 2240.74698,962.386643 L2067.62698,120.41333 C2061.82698,92.2266644 2068.93365,63.2799984 2087.10698,40.9866656 C2105.26698,18.7066662 2132.17365,5.91999985 2160.90698,5.91999985 L2361.97364,5.91999985 C2383.73364,5.91999985 2403.85364,14.7466663 2418.60031,30.7466659 C2433.16031,46.5333322 2440.50697,67.866665 2438.76031,89.2666644 L2367.93364,957.786643 C2366.33364,977.479976 2349.61364,992.906642 2329.86698,992.906642 L2278.16031,992.906642 Z M2361.97364,0 L2160.90698,0 C2130.38698,0 2101.81365,13.573333 2082.52031,37.2399991 C2063.20032,60.9199985 2055.66698,91.6799977 2061.81365,121.61333 L2234.94698,963.573309 C2239.14698,983.999975 2257.32031,998.826642 2278.16031,998.826642 L2329.86698,998.826642 C2352.66697,998.826642 2371.98697,981.013309 2373.84031,958.279976 L2444.66697,89.7466644 C2446.54697,66.706665 2438.64031,43.7333322 2422.96031,26.7333327 C2407.30697,9.74666642 2385.06697,0 2361.97364,0" id="path140" fill="#000000"></path>
                    <path d="M2297.89364,29.8799993 L2160.90698,29.8799993 C2139.38698,29.8799993 2119.25365,39.4533323 2105.65365,56.1466653 C2092.05365,72.8266648 2086.73365,94.493331 2091.08031,115.586664 L2147.90698,391.973324 C2148.24031,393.586657 2149.80031,394.613323 2151.40031,394.27999 C2153.01365,393.95999 2154.04031,392.386657 2153.70698,390.786657 L2096.88031,114.399997 C2092.90698,95.053331 2097.77365,75.1866648 2110.24031,59.8799993 C2122.72031,44.5866656 2141.18698,35.8133324 2160.90698,35.8133324 L2297.89364,35.8133324 C2299.53364,35.8133324 2300.85364,34.4799991 2300.85364,32.8399992 C2300.85364,31.2133326 2299.53364,29.8799993 2297.89364,29.8799993" id="path142" fill="#000000"></path>
                    <path d="M2361.97364,29.8799993 C2360.33364,29.8799993 2359.01364,31.2133326 2359.01364,32.8399992 C2359.01364,34.4799991 2360.33364,35.8133324 2361.97364,35.8133324 C2375.30697,35.8133324 2387.61364,41.2133323 2396.65364,51.0133321 C2405.69364,60.8266651 2410.06697,73.5466648 2408.98697,86.8399978 L2392.84031,284.773326 C2392.70697,286.399993 2393.92031,287.826659 2395.56031,287.959993 C2397.16031,288.106659 2398.61364,286.879999 2398.74697,285.253326 L2414.89364,87.3199978 C2416.10697,72.3599982 2411.18697,58.0399985 2401.01364,46.9999988 C2390.84031,35.9599991 2376.97364,29.8799993 2361.97364,29.8799993" id="path144" fill="#000000"></path>
                    <path d="M2350.88031,832.866646 C2349.36031,832.866646 2348.05364,834.039979 2347.93364,835.586646 L2344.57364,876.839978 C2344.44031,878.466645 2345.65364,879.893311 2347.28031,880.026645 C2348.92031,880.173311 2350.34697,878.946645 2350.46697,877.319978 L2353.84031,836.066646 C2353.97364,834.439979 2352.76031,833.013313 2351.12031,832.879979 C2351.04031,832.866646 2350.96031,832.866646 2350.88031,832.866646" id="path146" fill="#000000"></path>
                    <path d="M2219.62698,723.106649 C2219.42698,723.106649 2219.22698,723.119982 2219.02698,723.159982 C2217.42698,723.493315 2216.40031,725.053315 2216.72031,726.666649 L2264.20031,957.559976 C2265.56031,964.159976 2271.42698,968.946642 2278.16031,968.946642 L2329.86698,968.946642 C2337.22697,968.946642 2343.46697,963.186643 2344.06697,955.839976 L2346.28031,928.826643 C2346.41364,927.199977 2345.18697,925.759977 2343.56031,925.639977 C2341.94697,925.49331 2340.50697,926.719977 2340.37364,928.346643 L2338.16031,955.359976 C2337.81364,959.653309 2334.17364,963.013309 2329.86698,963.013309 L2278.16031,963.013309 C2274.22698,963.013309 2270.80031,960.213309 2270.00031,956.359976 L2222.53364,725.466649 C2222.24031,724.066649 2221.00031,723.106649 2219.62698,723.106649" id="path148" fill="#000000"></path>
                    <path d="M2088.16031,591.626652 L1276.96033,591.626652 C1275.32033,591.626652 1274.00033,592.959985 1274.00033,594.586652 C1274.00033,596.226652 1275.32033,597.559985 1276.96033,597.559985 L2088.16031,597.559985 C2110.93365,597.559985 2130.50698,613.039985 2135.76031,635.213317 L2207.26698,937.21331 C2207.64031,938.799977 2209.22698,939.786643 2210.82698,939.41331 C2212.41364,939.039977 2213.40031,937.439977 2213.02698,935.839977 L2141.52031,633.839984 C2135.64031,608.986651 2113.69365,591.626652 2088.16031,591.626652" id="path150" fill="#000000"></path>
                    <path d="M1775.06699,594.586652 L1752.34699,502.893321 C1748.68032,487.373321 1734.82699,476.426655 1718.89366,476.426655 L1558.22699,476.426655 C1540.73366,476.426655 1528.067,493.106654 1532.747,509.973321 L1556.28033,594.586652 L1775.06699,594.586652" id="path152" fill="#FFFFFF"></path>
                    <path d="M1558.53366,591.626652 L1535.60033,509.173321 C1533.61366,502.039987 1535.05366,494.559988 1539.53366,488.653321 C1544.01366,482.759988 1550.82699,479.386655 1558.22699,479.386655 L1718.89366,479.386655 C1733.52032,479.386655 1746.09366,489.333321 1749.46699,503.573321 L1771.28032,591.626652 L1558.53366,591.626652 Z M1718.89366,473.453321 L1558.22699,473.453321 C1548.96033,473.453321 1540.42699,477.693321 1534.81366,485.066655 C1529.20033,492.453321 1527.41366,501.826654 1529.89366,510.759987 L1553.42699,595.386652 C1553.78699,596.666652 1554.94699,597.559985 1556.28033,597.559985 L1775.06699,597.559985 C1775.98699,597.559985 1776.84032,597.133318 1777.40032,596.413318 C1777.96032,595.706652 1778.16032,594.759985 1777.94699,593.879985 L1755.22699,502.173321 C1751.22699,485.279988 1736.28032,473.453321 1718.89366,473.453321" id="path154" fill="#000000"></path>
                    <path d="M2014.13365,76.7999981 L1152.36034,76.7999981 C1150.72034,76.7999981 1149.387,78.119998 1149.387,79.759998 C1149.387,81.399998 1150.72034,82.7199979 1152.36034,82.7199979 L2014.13365,82.7199979 C2015.77365,82.7199979 2017.09365,81.399998 2017.09365,79.759998 C2017.09365,78.119998 2015.77365,76.7999981 2014.13365,76.7999981" id="path156" fill="#000000"></path>
                    <path d="M1594.34699,1030.55997 L1527.08033,1030.55997 C1508.907,1030.55997 1494.17366,1015.81331 1494.17366,997.639975 L1627.25366,997.639975 C1627.25366,1015.81331 1612.52033,1030.55997 1594.34699,1030.55997" id="path158" fill="#FFFFFF"></path>
                    <path d="M1497.28033,1000.59997 L1624.14699,1000.59997 C1622.65366,1015.73331 1609.85366,1027.59997 1594.34699,1027.59997 L1527.08033,1027.59997 C1511.57366,1027.59997 1498.77366,1015.73331 1497.28033,1000.59997 Z M1627.25366,994.679975 L1494.17366,994.679975 C1492.53366,994.679975 1491.21366,995.999975 1491.21366,997.639975 C1491.21366,1017.42664 1507.307,1033.51997 1527.08033,1033.51997 L1594.34699,1033.51997 C1614.12033,1033.51997 1630.21366,1017.42664 1630.21366,997.639975 C1630.21366,995.999975 1628.89366,994.679975 1627.25366,994.679975" id="path160" fill="#000000"></path>
                    <path d="M2133.46698,1030.55997 L2066.20032,1030.55997 C2048.02698,1030.55997 2033.29365,1015.81331 2033.29365,997.639975 L2166.37365,997.639975 C2166.37365,1015.81331 2151.64031,1030.55997 2133.46698,1030.55997" id="path162" fill="#000000"></path>
                    <path d="M2036.40032,1000.59997 L2163.26698,1000.59997 C2161.78698,1015.73331 2148.98698,1027.59997 2133.46698,1027.59997 L2066.20032,1027.59997 C2050.69365,1027.59997 2037.89365,1015.73331 2036.40032,1000.59997 Z M2166.37365,994.679975 L2033.29365,994.679975 C2031.66698,994.679975 2030.33365,995.999975 2030.33365,997.639975 C2030.33365,1017.42664 2046.42698,1033.51997 2066.20032,1033.51997 L2133.46698,1033.51997 C2153.25365,1033.51997 2169.34698,1017.42664 2169.34698,997.639975 C2169.34698,995.999975 2168.01365,994.679975 2166.37365,994.679975" id="path164" fill="#000000"></path>
                    <path d="M2115.90698,1032.33331 L2126.74698,1096.74664 C2134.44031,1142.42664 2103.65365,1179.46664 2057.98698,1179.46664 L1654.61366,1179.46664 C1608.94699,1179.46664 1565.69366,1142.42664 1558.01366,1096.74664 L1547.17366,1032.33331 L1578.04033,1032.33331 L1586.48033,1082.46664 C1592.46699,1118.02664 1626.12033,1146.83997 1661.66699,1146.83997 L2039.96032,1146.83997 C2075.49365,1146.83997 2099.46698,1118.02664 2093.48031,1082.46664 L2085.04031,1032.33331 L2115.90698,1032.33331" id="path166" fill="#FFFFFF"></path>
                    <path d="M2088.54698,1035.29331 L2113.41365,1035.29331 L2123.82698,1097.23997 C2127.44031,1118.69331 2122.44031,1138.75997 2109.76031,1153.74664 C2097.34698,1168.42664 2078.96031,1176.50664 2057.98698,1176.50664 L1654.61366,1176.50664 C1610.40033,1176.50664 1568.37366,1140.50664 1560.93366,1096.25331 L1550.68033,1035.29331 L1575.53366,1035.29331 L1583.56033,1082.95997 C1589.76033,1119.82664 1624.80033,1149.8133 1661.66699,1149.8133 L2039.96032,1149.8133 C2057.85365,1149.8133 2073.60031,1142.8533 2084.28031,1130.22664 C2095.16031,1117.35997 2099.46698,1100.22664 2096.40031,1081.97331 L2088.54698,1035.29331 Z M2115.90698,1029.37331 L2085.04031,1029.37331 C2084.17365,1029.37331 2083.34698,1029.75997 2082.77365,1030.41331 C2082.21365,1031.07997 2081.97365,1031.95997 2082.12031,1032.82664 L2090.56031,1082.95997 C2093.33365,1099.45331 2089.49365,1114.89331 2079.74698,1126.39997 C2070.21365,1137.67997 2056.09365,1143.87997 2039.96032,1143.87997 L1661.66699,1143.87997 C1627.56033,1143.87997 1595.14699,1116.10664 1589.40033,1081.97331 L1580.97366,1031.83997 C1580.72033,1030.41331 1579.49366,1029.37331 1578.04033,1029.37331 L1547.17366,1029.37331 C1546.30699,1029.37331 1545.48033,1029.75997 1544.90699,1030.41331 C1544.34699,1031.07997 1544.10699,1031.95997 1544.25366,1032.82664 L1555.09366,1097.23997 C1563.00033,1144.2133 1607.64033,1182.42664 1654.61366,1182.42664 L2057.98698,1182.42664 C2080.73365,1182.42664 2100.73365,1173.59997 2114.28031,1157.5733 C2128.10698,1141.22664 2133.57365,1119.45331 2129.68031,1096.25331 L2118.84031,1031.83997 C2118.60031,1030.41331 2117.36031,1029.37331 2115.90698,1029.37331" id="path168" fill="#000000"></path>
                    <path d="M2037.96032,1206.1333 L1683.62699,1206.1333 C1669.34699,1206.1333 1655.81366,1194.55997 1653.41366,1180.26664 L1648.20033,1149.30664 C1645.80033,1135.02664 1655.42699,1123.43997 1669.70699,1123.43997 L2024.04032,1123.43997 C2038.32032,1123.43997 2051.84032,1135.02664 2054.25365,1149.30664 L2059.45365,1180.26664 C2061.86698,1194.55997 2052.24032,1206.1333 2037.96032,1206.1333" id="path170" fill="#FFFFFF"></path>
                    <path d="M1683.62699,1203.1733 C1670.74699,1203.1733 1658.50699,1192.67997 1656.33366,1179.7733 L1651.12033,1148.8133 C1650.09366,1142.70664 1651.50699,1137.02664 1655.06699,1132.79997 C1658.56033,1128.66664 1663.76033,1126.39997 1669.70699,1126.39997 L2024.04032,1126.39997 C2036.92032,1126.39997 2049.16032,1136.8933 2051.32032,1149.79997 L2056.53365,1180.75997 C2057.56032,1186.86664 2056.16032,1192.55997 2052.58698,1196.78664 C2049.10698,1200.90664 2043.90698,1203.1733 2037.96032,1203.1733 L1683.62699,1203.1733 Z M2024.04032,1120.47997 L1669.70699,1120.47997 C1661.98699,1120.47997 1655.18699,1123.49331 1650.54699,1128.97331 C1645.82699,1134.54664 1643.96033,1141.94664 1645.28033,1149.79997 L1650.49366,1180.75997 C1653.12033,1196.38664 1667.98699,1209.10664 1683.62699,1209.10664 L2037.96032,1209.10664 C2045.68032,1209.10664 2052.48032,1206.07997 2057.12032,1200.6133 C2061.82698,1195.02664 2063.70698,1187.63997 2062.38698,1179.78664 L2057.17365,1148.8133 C2054.54698,1133.18664 2039.68032,1120.47997 2024.04032,1120.47997" id="path172" fill="#000000"></path>
                    <path d="M1820.88032,1120.47997 L1669.70699,1120.47997 C1661.98699,1120.47997 1655.18699,1123.49331 1650.54699,1128.97331 C1645.82699,1134.54664 1643.96033,1141.94664 1645.28033,1149.79997 L1650.49366,1180.75997 C1653.12033,1196.38664 1667.98699,1209.10664 1683.62699,1209.10664 L1801.80032,1209.10664 C1803.44032,1209.10664 1804.77365,1207.7733 1804.77365,1206.1333 C1804.77365,1204.50664 1803.44032,1203.1733 1801.80032,1203.1733 L1683.62699,1203.1733 C1670.74699,1203.1733 1658.50699,1192.67997 1656.33366,1179.7733 L1651.12033,1148.8133 C1650.09366,1142.70664 1651.50699,1137.02664 1655.06699,1132.79997 C1658.56033,1128.66664 1663.76033,1126.39997 1669.70699,1126.39997 L1820.88032,1126.39997 C1822.52032,1126.39997 1823.84032,1125.07997 1823.84032,1123.43997 C1823.84032,1121.79997 1822.52032,1120.47997 1820.88032,1120.47997" id="path174" fill="#000000"></path>
                    <path d="M2159.01365,76.7999981 C2157.98698,76.7999981 2156.98698,77.3333314 2156.44031,78.2933314 C2155.62698,79.719998 2156.12031,81.519998 2157.54698,82.3333313 L2294.93364,160.653329 L2294.93364,936.53331 C2294.93364,938.159977 2296.26698,939.49331 2297.89364,939.49331 C2299.53364,939.49331 2300.85364,938.159977 2300.85364,936.53331 L2300.85364,158.933329 C2300.85364,157.866663 2300.29364,156.879996 2299.36031,156.359996 L2160.48031,77.1866647 C2160.01365,76.9199981 2159.50698,76.7999981 2159.01365,76.7999981" id="path176" fill="#000000"></path>
                    <path d="M2153.60031,1015.26664 C2153.60031,1015.26664 2215.42698,992.226642 2239.66698,1011.62664 C2263.90698,1031.03997 2202.09365,1063.77331 2187.54698,1061.34664 C2173.00031,1058.91997 2153.60031,1015.26664 2153.60031,1015.26664" id="path178" fill="#000000"></path>
                    <polyline id="path180" fill="#FFFFFF" points="1842.94699 520.85332 1901.12032 418.986656 1932.64032 462.639988 1881.73365 562.079986 1842.94699 520.85332"></polyline>
                    <path d="M1846.60032,520.41332 L1901.41365,424.453323 L1929.17365,462.906655 L1881.00032,556.986653 L1846.60032,520.41332 Z M1901.12032,416.026656 C1901.06699,416.026656 1901.01365,416.026656 1900.96032,416.026656 C1899.96032,416.07999 1899.05365,416.63999 1898.54699,417.51999 L1840.37365,519.386654 C1839.72032,520.506654 1839.89365,521.93332 1840.78699,522.879987 L1879.57365,564.106653 C1880.22699,564.813319 1881.17365,565.159986 1882.14699,565.013319 C1883.09365,564.879986 1883.93365,564.293319 1884.36032,563.426653 L1935.28032,463.999988 C1935.78698,462.999988 1935.69365,461.813322 1935.04032,460.906655 L1903.52032,417.253323 C1902.97365,416.47999 1902.06699,416.026656 1901.12032,416.026656" id="path182" fill="#000000"></path>
                    <path d="M1880.97365,434.519989 C1896.32032,402.87999 1935.14699,326.133325 1972.57365,289.346659 C1981.69365,280.38666 1997.13365,284.54666 2000.40032,296.919993 C2012.10698,341.226658 2019.90698,433.546656 1976.26698,506.293321 C1976.26698,506.293321 1955.52032,508.719987 1916.73365,501.453321 L1925.36032,465.066655 L1920.60032,468.479988 C1913.42699,473.599988 1903.69365,473.159988 1897.01365,467.426655 L1885.82699,457.839989 C1879.10699,452.079989 1877.10699,442.506656 1880.97365,434.519989" id="path184" fill="#000000"></path>
                    <path d="M1978.69365,299.613326 C1978.34698,299.613326 1978.00032,299.666659 1977.65365,299.799993 C1976.12032,300.386659 1975.34698,302.093326 1975.92032,303.626659 C2009.05365,391.213324 1964.32032,494.373321 1963.86698,495.399988 C1963.20032,496.893321 1963.88032,498.653321 1965.37365,499.306654 C1966.88032,499.973321 1968.62698,499.293321 1969.28032,497.799988 C1969.74698,496.746654 2015.44032,391.35999 1981.46698,301.519992 C1981.02698,300.346659 1979.89365,299.613326 1978.69365,299.613326" id="path186" fill="#FFFFFF"></path>
                    <path d="M1903.54699,387.43999 C1902.57365,387.43999 1901.62699,387.91999 1901.06699,388.79999 C1900.17365,390.173324 1900.56032,391.99999 1901.93365,392.893324 L1931.02699,411.773323 C1932.40032,412.666656 1934.22699,412.27999 1935.12032,410.906656 C1936.01365,409.533323 1935.62698,407.693323 1934.25365,406.79999 L1905.16032,387.91999 C1904.66699,387.59999 1904.10699,387.43999 1903.54699,387.43999" id="path188" fill="#FFFFFF"></path>
                    <path d="M1918.09365,361.599991 C1917.20032,361.599991 1916.32032,361.999991 1915.74699,362.746658 C1914.74699,364.053324 1914.98699,365.906658 1916.29365,366.906657 L1942.96032,387.386657 C1944.25365,388.386657 1946.10698,388.133324 1947.10698,386.83999 C1948.10698,385.546657 1947.85365,383.67999 1946.56032,382.67999 L1919.89365,362.213324 C1919.36032,361.799991 1918.72032,361.599991 1918.09365,361.599991" id="path190" fill="#FFFFFF"></path>
                    <path d="M1658.70699,518.426654 C1658.70699,515.999987 1605.37366,399.586657 1605.37366,399.586657 L1665.97366,394.733323 L1707.18699,494.173321 L1658.70699,518.426654" id="path192" fill="#FFFFFF"></path>
                    <path d="M1609.82699,402.19999 L1664.06699,397.866657 L1703.38699,492.759988 L1660.25366,514.33332 C1656.98699,506.253321 1646.08033,481.386655 1609.82699,402.19999 L1609.82699,402.19999 Z M1665.97366,391.773324 C1665.89366,391.773324 1665.81366,391.773324 1665.73366,391.786657 L1605.13366,396.626657 C1604.17366,396.706657 1603.30699,397.253323 1602.81366,398.093323 C1602.32033,398.91999 1602.26699,399.946657 1602.68033,400.826657 C1623.26699,445.759989 1654.26699,513.999987 1655.78699,518.93332 C1655.93366,519.759987 1656.41366,520.49332 1657.14699,520.946654 C1658.01366,521.49332 1659.10699,521.53332 1660.02699,521.079987 L1708.50699,496.826654 C1709.90699,496.133321 1710.52032,494.479988 1709.92032,493.039988 L1668.70699,393.59999 C1668.25366,392.493324 1667.16033,391.773324 1665.97366,391.773324" id="path194" fill="#000000"></path>
                    <path d="M1661.12033,423.839989 C1661.12033,423.839989 1649.00033,452.946655 1617.49366,438.386656 C1617.49366,438.386656 1559.64033,354.786658 1538.13366,285.759993 C1532.05366,266.239993 1552.09366,248.653327 1570.72033,257.06666 C1614.32033,276.759993 1682.64032,318.093325 1721.73366,394.733323 C1721.73366,394.733323 1709.61366,426.266656 1690.21366,440.813322 L1661.12033,423.839989" id="path196" fill="#000000"></path>
                    <path d="M1555.92033,275.14666 C1553.44033,275.14666 1551.97366,275.333326 1551.60033,275.38666 C1549.98699,275.62666 1548.86699,277.133326 1549.10699,278.759993 C1549.34699,280.373326 1550.84033,281.493326 1552.46699,281.253326 C1553.13366,281.159993 1617.52033,273.719993 1704.78699,394.053323 C1705.74699,395.373323 1707.60032,395.666657 1708.92032,394.706657 C1710.25366,393.746657 1710.54699,391.893324 1709.58699,390.573324 C1631.77366,283.279993 1572.16033,275.14666 1555.92033,275.14666" id="path198" fill="#FFFFFF"></path>
                    <path d="M1605.36033,340.839991 C1604.85366,340.839991 1604.34699,340.973325 1603.88033,341.239991 L1574.78699,358.226658 C1573.37366,359.053324 1572.89366,360.866658 1573.72033,362.279991 C1574.54699,363.693324 1576.36033,364.173324 1577.77366,363.346658 L1606.86699,346.359991 C1608.28033,345.533325 1608.74699,343.719991 1607.93366,342.306658 C1607.37366,341.373325 1606.38699,340.839991 1605.36033,340.839991" id="path200" fill="#FFFFFF"></path>
                    <path d="M1619.90699,362.666658 C1619.44033,362.666658 1618.96033,362.786658 1618.50699,363.026658 L1587.00033,379.999991 C1585.56033,380.773324 1585.01366,382.573324 1585.78699,384.013324 C1586.57366,385.453324 1588.36033,385.99999 1589.80033,385.213324 L1621.32033,368.239991 C1622.76033,367.466657 1623.29366,365.666658 1622.52033,364.226658 C1621.98699,363.226658 1620.96033,362.666658 1619.90699,362.666658" id="path202" fill="#FFFFFF"></path>
                    <path d="M1969.00032,1105.34664 C1969.00032,1105.34664 1811.00032,1077.11997 1697.13366,957.679976 C1668.38699,927.519977 1658.24033,884.119978 1670.56032,844.333312 C1695.85366,762.693314 1750.93366,613.586651 1842.94699,501.453321 L1913.24032,562.079986 C1913.24032,562.079986 1896.28032,702.746649 1850.21365,790.053314 C1804.16032,877.373311 2073.24031,1066.54664 2073.24031,1066.54664 L1969.00032,1105.34664" id="path204" fill="#FFFFFF"></path>
                    <path d="M1968.74698,1102.27997 C1956.58698,1099.90664 1807.05365,1068.67997 1699.28032,955.626643 C1671.30699,926.279977 1661.38699,883.973311 1673.40032,845.213312 C1697.85366,766.279981 1752.32032,617.719985 1843.30699,505.679987 L1910.10699,563.279986 C1908.06699,578.919986 1890.28032,707.759982 1847.60032,788.679987 C1803.66699,871.959978 2030.38698,1039.43997 2066.97365,1065.71997 L1968.74698,1102.27997 Z M1842.94699,498.493321 C1842.85365,498.493321 1842.77365,498.493321 1842.69365,498.493321 C1841.89365,498.559988 1841.16032,498.946654 1840.65365,499.573321 C1747.86699,612.653318 1692.48032,763.559981 1667.73366,843.453312 C1655.09366,884.266645 1665.53366,928.826643 1694.98699,959.719976 C1808.21365,1078.49331 1966.89365,1107.98664 1968.48032,1108.26664 C1969.00032,1108.35997 1969.53365,1108.31162 1970.04032,1108.11997 L2074.28031,1069.31997 C2075.30698,1068.93331 2076.04031,1068.01331 2076.18698,1066.91997 C2076.32031,1065.82664 2075.84031,1064.74664 2074.94698,1064.11997 C2072.28031,1062.23997 1808.50699,875.466645 1852.84032,791.43998 C1898.62699,704.653316 1916.01365,563.853319 1916.18699,562.439986 C1916.30699,561.453319 1915.92032,560.479986 1915.17365,559.839986 L1844.88032,499.199988 C1844.33365,498.733321 1843.65365,498.493321 1842.94699,498.493321" id="path206" fill="#000000"></path>
                    <path d="M1639.30699,496.599988 L1721.73366,472.346655 C1721.73366,472.346655 1872.02699,790.053314 1915.66699,836.146646 C1959.30699,882.226645 2044.14698,957.399976 2133.85365,984.079975 C2223.54698,1010.75997 2223.54698,1078.66664 2223.54698,1078.66664 L2070.81365,1122.31997 C2070.81365,1122.31997 1857.48032,1030.15997 1787.18699,925.879977 C1716.88032,821.586646 1639.30699,496.599988 1639.30699,496.599988" id="path208" fill="#FFFFFF"></path>
                    <path d="M1642.85366,498.639988 L1720.13366,475.906655 C1734.84032,506.906655 1871.52032,793.826647 1913.52032,838.173312 C1939.33365,865.439978 2031.42698,956.719976 2133.00031,986.919975 C2210.54698,1009.98664 2219.44031,1064.81331 2220.45364,1076.46664 L2071.02698,1119.18664 C2055.37365,1112.27997 1856.25365,1023.03997 1789.64032,924.226644 C1723.85366,826.613313 1650.57366,530.346653 1642.85366,498.639988 Z M1721.73366,469.386655 C1721.45366,469.386655 1721.17366,469.426655 1720.89366,469.506655 L1638.46699,493.759988 C1636.96033,494.199988 1636.05366,495.746654 1636.42699,497.279988 C1637.20033,500.546654 1714.93366,823.999979 1784.73366,927.53331 C1854.70699,1031.33331 2067.50698,1124.11997 2069.64031,1125.03997 C2070.26698,1125.31997 2070.97365,1125.35997 2071.62698,1125.17331 L2224.36031,1081.51997 C2225.62698,1081.15997 2226.50698,1079.99997 2226.50698,1078.66664 C2226.50698,1077.97331 2225.45364,1008.23997 2134.69365,981.239975 C2034.53365,951.45331 1943.37365,861.093312 1917.81365,834.106646 C1875.00032,788.893314 1725.90699,474.253321 1724.41366,471.079988 C1723.90699,470.026655 1722.85366,469.386655 1721.73366,469.386655" id="path210" fill="#000000"></path>
                    <path d="M2347.17364,1328.47997 C2305.96031,1410.9333 2238.09364,1423.06663 2238.09364,1423.06663 L2121.72031,1432.75996 C2085.33365,1435.22663 2046.65365,1412.74663 2032.29365,1379.19997 L1925.36032,1129.59997 C1925.36032,1129.59997 1947.18698,1071.39997 2044.14698,1061.69331 C2141.12031,1051.98664 2207.78698,1058.05331 2239.30698,1019.25331 C2260.08031,993.666642 2259.41364,1164.27997 2247.46698,1299.23997 L2347.17364,1328.47997" id="path212" fill="#FFFFFF"></path>
                    <path d="M1928.58699,1129.59997 C1932.14699,1121.85331 1957.76032,1073.31997 2044.44032,1064.63997 C2066.18698,1062.46664 2086.84031,1061.05331 2105.05365,1059.81331 C2169.66698,1055.39997 2216.34698,1052.21331 2241.60031,1021.11997 C2242.68031,1019.78664 2243.26698,1019.63997 2243.26698,1019.63997 C2243.53364,1019.77331 2252.48031,1024.31997 2252.84031,1114.14664 C2253.06698,1168.51997 2249.94698,1237.6133 2244.52031,1298.9733 C2244.38698,1300.38663 2245.28031,1301.67997 2246.64031,1302.07997 L2342.92031,1330.31997 C2302.69364,1407.67996 2238.22698,1420.02663 2237.57364,1420.14663 L2121.48031,1429.8133 C2085.88031,1432.22663 2048.69365,1409.95996 2035.01365,1378.03997 L1928.58699,1129.59997 Z M2243.21364,1013.70664 C2241.45364,1013.70664 2239.29364,1014.55997 2237.00031,1017.38664 C2213.37364,1046.46664 2167.77365,1049.58664 2104.65365,1053.89331 C2086.38698,1055.14664 2065.68032,1056.55997 2043.85365,1058.74664 C1946.17365,1068.51997 1923.50699,1126.11997 1922.58699,1128.55997 C1922.32032,1129.27997 1922.34699,1130.06664 1922.64032,1130.77331 L2029.56032,1380.3733 C2044.18698,1414.4933 2083.86698,1438.27996 2121.92031,1435.71996 L2238.33364,1426.0133 C2239.30698,1425.8533 2308.42698,1412.63996 2349.82697,1329.79997 C2350.22697,1329.0133 2350.24031,1328.0933 2349.89364,1327.2933 C2349.54697,1326.4933 2348.85364,1325.87997 2348.01364,1325.62663 L2250.62698,1297.07997 C2258.98698,1201.0933 2265.88031,1022.45331 2245.37364,1014.13331 C2244.76031,1013.89331 2244.02698,1013.70664 2243.21364,1013.70664" id="path214" fill="#000000"></path>
                    <path d="M2035.97365,1113.53331 L2089.30698,1137.78664 L2130.52031,1120.81331 C2130.52031,1120.81331 2353.89364,1143.19997 2255.02698,1301.4533 C2254.60031,1302.1333 2330.44031,1323.5733 2330.44031,1323.5733 C2330.44031,1323.5733 2420.53364,1108.67997 2135.37365,1103.82664 C2135.37365,1103.82664 2120.82698,1098.98664 2101.42698,1108.67997 C2082.04031,1118.38664 2048.09365,1098.98664 2035.97365,1113.53331" id="path216" fill="#FFFFFF"></path>
                    <path d="M2087.05365,1114.50664 C2092.68031,1114.50664 2098.02698,1113.69331 2102.76031,1111.33331 C2120.69365,1102.35997 2134.30698,1106.59997 2134.44031,1106.63997 C2134.72031,1106.73331 2135.02698,1106.78664 2135.32031,1106.78664 C2228.40031,1108.37331 2290.82698,1132.51997 2320.88031,1178.54664 C2357.36031,1234.4133 2333.84031,1305.95997 2328.64031,1319.98663 C2303.97364,1312.99997 2269.89364,1303.22663 2259.45364,1299.91997 C2284.46698,1258.5733 2289.77364,1222.62664 2275.24031,1193.02664 C2244.28031,1129.91997 2135.44031,1118.31997 2130.81365,1117.86664 C2130.32031,1117.81331 2129.84031,1117.87997 2129.38698,1118.06664 L2089.36031,1134.55997 L2041.53365,1112.79997 C2047.68032,1109.55997 2057.60032,1111.02664 2067.98698,1112.58664 C2074.37365,1113.53331 2080.88031,1114.50664 2087.05365,1114.50664 L2087.05365,1114.50664 Z M2125.65365,1099.63997 C2119.21365,1099.63997 2110.28031,1100.94664 2100.10698,1106.02664 C2091.88031,1110.14664 2080.17365,1108.39997 2068.85365,1106.71997 C2054.64032,1104.59997 2041.22698,1102.59997 2033.69365,1111.63997 C2033.10698,1112.34664 2032.88032,1113.29331 2033.09365,1114.18664 C2033.29365,1115.09331 2033.90698,1115.85331 2034.74698,1116.22664 L2088.08031,1140.47997 C2088.82698,1140.82664 2089.68031,1140.83997 2090.44031,1140.51997 L2130.94698,1123.83997 C2140.53365,1124.95997 2241.69364,1138.07997 2269.93364,1195.6533 C2283.85364,1224.02664 2278.00031,1259.0933 2252.52031,1299.87997 C2252.02698,1300.67997 2251.93364,1301.66663 2252.26698,1302.5333 C2252.97364,1304.3733 2253.14698,1304.79997 2329.62698,1326.4133 C2331.08031,1326.82663 2332.58698,1326.0933 2333.17364,1324.71997 C2333.52031,1323.86663 2367.96031,1239.82664 2325.84031,1175.30664 C2294.69364,1127.59997 2230.76031,1102.55997 2135.82698,1100.87997 C2134.56031,1100.51997 2130.94698,1099.63997 2125.65365,1099.63997" id="path218" fill="#000000"></path>
                    <path d="M1832.69365,1094.27997 L2042.96032,1094.27997 L1887.08032,1334.1333 C1882.20032,1341.62663 1873.72032,1346.1733 1864.60032,1346.1733 L1693.94699,1346.1733 C1683.10699,1346.1733 1676.52032,1334.55997 1682.30699,1325.6533 L1832.69365,1094.27997" id="path220" fill="#000000"></path>
                    <path d="M1790.77366,1262.06664 C1797.61366,1251.55997 1812.30699,1243.02664 1823.60032,1243.02664 C1834.89365,1243.02664 1838.50699,1251.55997 1831.66699,1262.06664 C1824.84032,1272.5733 1810.14699,1281.10663 1798.85366,1281.10663 C1787.56032,1281.10663 1783.94699,1272.5733 1790.77366,1262.06664" id="path222" fill="#FFFFFF"></path>
                    <path d="M1798.85366,1278.1333 C1794.92032,1278.1333 1792.12032,1276.94663 1790.94699,1274.79997 C1789.53366,1272.1733 1790.37366,1268.11997 1793.25366,1263.67997 C1799.49366,1254.0933 1813.38699,1245.99997 1823.60032,1245.99997 C1827.52032,1245.99997 1830.32032,1247.1733 1831.49365,1249.3333 C1832.92032,1251.94664 1832.08032,1255.99997 1829.18699,1260.4533 C1822.96032,1270.03997 1809.06699,1278.1333 1798.85366,1278.1333 Z M1823.60032,1240.06664 C1811.22699,1240.06664 1795.72032,1249.02664 1788.29366,1260.4533 C1784.18699,1266.7733 1783.25366,1273.03997 1785.74699,1277.62663 C1788.00032,1281.7733 1792.65366,1284.06664 1798.85366,1284.06664 C1811.21365,1284.06664 1826.73365,1275.10663 1834.16032,1263.67997 C1838.26699,1257.35997 1839.20032,1251.0933 1836.70699,1246.50664 C1834.45365,1242.35997 1829.80032,1240.06664 1823.60032,1240.06664" id="path224" fill="#000000"></path>
                    <path d="M1847.49365,1076.23997 L2170.96032,1076.23997 C2179.53365,1076.23997 2186.48031,1083.19997 2186.48031,1091.77331 L2186.48031,1095.82664 L1831.96032,1095.82664 L1831.96032,1091.77331 C1831.96032,1083.19997 1838.92032,1076.23997 1847.49365,1076.23997" id="path226" fill="#000000"></path>
                    <path d="M2259.90698,1990.58662 C2348.92031,2018.70662 2464.04031,1890.93329 2440.85364,1785.83996 C2434.46697,1756.85329 2441.53364,1713.01329 2409.77364,1696.99996 C2353.44031,1668.59996 2318.01364,1702.98662 2303.54698,1680.14662 C2291.00031,1660.34663 2335.57364,1631.81329 2330.21364,1590.41329 C2322.24031,1528.8933 2211.82698,1499.19996 2199.30698,1495.82663 C2189.94698,1493.30663 2058.18698,1459.63996 1995.66698,1529.7733 C1980.61365,1546.66663 1960.86698,1579.34663 1971.42698,1600.10663 C1981.49365,1619.90663 2012.41365,1615.65329 2019.90698,1636.49329 C2026.41365,1654.53329 2005.69365,1664.63996 2007.78698,1684.99996 C2011.82698,1724.25329 2092.90698,1726.27996 2102.33365,1767.45329 C2109.86698,1800.38662 2062.77365,1819.73329 2070.81365,1852.34662 C2077.30698,1878.63995 2111.21365,1879.34662 2165.36031,1912.97329 C2230.20031,1953.23995 2226.18698,1979.93328 2259.90698,1990.58662" id="path228" fill="#000000"></path>
                    <path d="M2160.52031,1440.03996 C2158.36031,1441.11996 2129.18698,1475.54663 2112.12031,1495.82663 C2113.41365,1501.4533 2113.21365,1503.2533 2112.76031,1511.78663 C2112.76031,1511.78663 2121.60031,1520.63996 2118.05365,1532.15996 C2113.92031,1545.53329 2101.22698,1534.79996 2101.22698,1534.79996 C2101.22698,1534.79996 2095.34698,1545.07996 2073.24031,1527.34663 C2051.13365,1509.62663 2027.77365,1531.18663 2027.77365,1531.18663 C2027.77365,1531.18663 2027.78698,1517.90663 2039.46698,1501.7733 C2045.90698,1492.86663 2047.00032,1481.10663 2047.30698,1470.11996 L2059.69365,1471.8933 C2066.50698,1463.8133 2071.57365,1459.8533 2080.94698,1455.9733 C2080.94698,1455.9733 2088.34698,1457.3333 2096.02698,1463.6933 L2109.60031,1432.75996 L2095.76031,1425.4933 C2095.76031,1425.4933 2092.64031,1406.07996 2129.00031,1401.23996 C2165.36031,1396.38663 2194.45365,1425.4933 2194.45365,1425.4933 C2194.45365,1425.4933 2175.05365,1432.75996 2160.52031,1440.03996" id="path230" fill="#FFFFFF"></path>
                    <path d="M2098.68031,1423.66663 C2098.77365,1422.07996 2099.33365,1419.2533 2101.65365,1416.2133 C2106.28031,1410.1333 2115.88031,1405.9733 2129.38698,1404.1733 C2156.78698,1400.51996 2180.25365,1417.30663 2188.85365,1424.47996 C2182.18698,1427.0933 2169.44031,1432.26663 2159.18698,1437.38663 C2158.20031,1437.87996 2156.14698,1438.91996 2109.85365,1493.91996 C2109.25365,1494.63996 2109.02698,1495.58663 2109.22698,1496.4933 C2110.36031,1501.39996 2110.28031,1502.9333 2109.86698,1510.26663 L2109.80031,1511.62663 C2109.74698,1512.46663 2110.06698,1513.27996 2110.65365,1513.87996 C2110.96031,1514.18663 2118.18698,1521.67996 2115.21365,1531.27996 C2114.42698,1533.82663 2113.29365,1535.33329 2111.84031,1535.75996 C2109.09365,1536.55996 2104.80031,1533.93329 2103.14698,1532.5333 C2102.46698,1531.95996 2101.58698,1531.7333 2100.72031,1531.87996 C2099.85365,1532.02663 2099.09365,1532.55996 2098.65365,1533.31996 L2098.65365,1533.31996 C2098.65365,1533.31996 2097.86698,1534.39996 2095.77365,1534.70663 C2093.06698,1535.11996 2086.77365,1534.39996 2075.09365,1525.03996 C2058.26698,1511.54663 2040.72032,1518.98663 2031.78698,1524.59996 C2033.04032,1519.4933 2035.80032,1511.8933 2041.86698,1503.50663 C2048.05365,1494.95996 2049.65365,1484.18663 2050.14698,1473.51996 L2059.26698,1474.82663 C2060.28032,1474.9733 2061.29365,1474.58663 2061.96032,1473.8133 C2068.45365,1466.10663 2073.06698,1462.55996 2081.20031,1459.07996 C2083.18698,1459.6133 2088.60031,1461.38663 2094.14698,1465.9733 C2094.85365,1466.5733 2095.81365,1466.78663 2096.70698,1466.5733 C2097.61365,1466.35996 2098.37365,1465.7333 2098.74698,1464.8933 L2112.32031,1433.95996 C2112.94698,1432.5333 2112.36031,1430.86663 2110.98698,1430.14663 L2098.68031,1423.66663 Z M2137.34698,1397.71997 C2134.49365,1397.71997 2131.57365,1397.90663 2128.60031,1398.2933 C2113.12031,1400.35996 2102.41365,1405.2533 2096.77365,1412.8533 C2091.85365,1419.4533 2092.80031,1425.6933 2092.84031,1425.95996 C2092.98698,1426.87996 2093.56031,1427.67996 2094.38698,1428.10663 L2105.78698,1434.10663 L2094.82698,1459.07996 C2087.84031,1454.27996 2081.77365,1453.11996 2081.48031,1453.06663 C2080.92031,1452.95996 2080.33365,1453.02663 2079.81365,1453.23996 C2070.69365,1457.0133 2065.32032,1460.87996 2058.49365,1468.7333 L2047.72032,1467.18663 C2046.88032,1467.06663 2046.04032,1467.30663 2045.40032,1467.8533 C2044.74698,1468.38663 2044.36032,1469.18663 2044.34698,1470.02663 C2044.04032,1480.8133 2042.94698,1491.90663 2037.06698,1500.03996 C2024.97365,1516.75996 2024.81365,1530.59996 2024.81365,1531.18663 C2024.81365,1532.35996 2025.50698,1533.42663 2026.58698,1533.90663 C2027.65365,1534.37329 2028.92032,1534.15996 2029.78698,1533.37329 C2030.66698,1532.55996 2051.57365,1513.7733 2071.38698,1529.66663 C2081.90698,1538.09329 2090.57365,1541.73329 2097.14698,1540.49329 C2099.04031,1540.11996 2100.46698,1539.41329 2101.50698,1538.66663 C2104.22698,1540.42663 2108.96031,1542.77329 2113.50698,1541.43996 C2116.98698,1540.42663 2119.46698,1537.58663 2120.88031,1533.02663 C2124.21365,1522.22663 2118.20031,1513.62663 2115.77365,1510.71997 L2115.78698,1510.59996 C2116.16031,1503.8133 2116.29365,1501.3333 2115.32031,1496.62663 C2154.21365,1450.42663 2160.90698,1443.55996 2162.04031,1442.58663 C2176.25365,1435.50663 2195.30698,1428.3333 2195.49365,1428.26663 C2196.44031,1427.90663 2197.13365,1427.10663 2197.34698,1426.11996 C2197.56031,1425.1333 2197.26698,1424.10663 2196.54698,1423.39996 C2195.41365,1422.26663 2170.46698,1397.71997 2137.34698,1397.71997" id="path232" fill="#000000"></path>
                    <polyline id="path234" fill="#FFFFFF" points="2096.02698 1463.6933 2100.02698 1467.30663 2096.02698 1463.6933"></polyline>
                    <path d="M2096.02698,1460.7333 C2095.22698,1460.7333 2094.41365,1461.06663 2093.82698,1461.70663 C2092.73365,1462.9333 2092.82698,1464.79996 2094.05365,1465.8933 L2098.05365,1469.50663 C2099.25365,1470.59996 2101.13365,1470.50663 2102.22698,1469.27996 C2103.32031,1468.06663 2103.22698,1466.19996 2102.01365,1465.10663 L2098.01365,1461.4933 C2097.45365,1460.98663 2096.73365,1460.7333 2096.02698,1460.7333" id="path236" fill="#000000"></path>
                    <polyline id="path238" fill="#FFFFFF" points="925.94701 1860.39995 795.836347 1559.10663 910.880344 1597.07996 974.347009 1493.6533 1052.41367 1815.50662 925.94701 1860.39995"></polyline>
                    <path d="M910.880344,1600.03996 C911.880344,1600.03996 912.853677,1599.51996 913.400344,1598.62663 L973.147009,1501.27996 L1048.90701,1813.61329 L927.573677,1856.67995 L801.172347,1563.98663 L909.947011,1599.89329 C910.253677,1599.98663 910.560344,1600.03996 910.880344,1600.03996 L910.880344,1600.03996 Z M974.347009,1490.6933 C973.333676,1490.6933 972.373676,1491.22663 971.827009,1492.10663 L909.573677,1593.53329 L796.76568,1556.29329 C795.65768,1555.93329 794.440347,1556.25329 793.651014,1557.10663 C792.863014,1557.97329 792.65368,1559.21329 793.116347,1560.27996 L923.22701,1861.57329 C923.853677,1862.99995 925.46701,1863.70662 926.94701,1863.18662 L1053.41367,1818.30662 C1054.84034,1817.79995 1055.65367,1816.29329 1055.29367,1814.81329 L977.227009,1492.95996 C976.947009,1491.79996 976.000342,1490.91996 974.813676,1490.7333 C974.653676,1490.70663 974.507009,1490.6933 974.347009,1490.6933" id="path240" fill="#000000"></path>
                    <polyline id="path242" fill="#FFFFFF" points="1040.54701 1804.33329 1129.57367 1488.43996 1194.89367 1590.50663 1309.347 1550.33329 1166.97367 1849.31995 1040.54701 1804.33329"></polyline>
                    <path d="M1044.14701,1802.46662 L1130.62701,1495.59996 L1192.387,1592.10663 C1193.13367,1593.26663 1194.57367,1593.75996 1195.867,1593.30663 L1303.61367,1555.47996 L1165.45367,1845.63995 L1044.14701,1802.46662 Z M1129.57367,1485.47996 C1129.42701,1485.47996 1129.28034,1485.4933 1129.13367,1485.51996 C1127.98701,1485.67996 1127.04034,1486.51996 1126.72034,1487.63996 L1037.69367,1803.53329 C1037.26701,1805.02662 1038.08034,1806.59995 1039.54701,1807.11995 L1165.987,1852.11995 C1167.41367,1852.62662 1169.00034,1851.97329 1169.65367,1850.59995 L1312.027,1551.59996 C1312.547,1550.51996 1312.36033,1549.23996 1311.56033,1548.34663 C1310.76033,1547.45329 1309.507,1547.13329 1308.37367,1547.53329 L1196.12034,1586.93329 L1132.06701,1486.8533 C1131.52034,1485.98663 1130.57367,1485.47996 1129.57367,1485.47996" id="path244" fill="#000000"></path>
                    <polyline id="path246" fill="#000000" points="1299.25367 1937.43995 1263.73367 1894.33329 1280.12033 1840.91995 1230.76034 1814.74662 1225.427 1759.13329 1169.827 1753.78662 1143.68034 1704.41329 1090.29367 1720.81329 1047.20034 1685.26662 1004.10701 1720.81329 950.70701 1704.41329 924.560344 1753.79996 868.961678 1759.13329 863.627012 1814.75995 814.26968 1840.91995 830.659013 1894.33329 795.13768 1937.43995 830.659013 1980.55995 814.26968 2033.97328 863.629678 2060.13328 868.965678 2115.75995 924.560344 2121.09328 950.70701 2170.47995 1004.10701 2154.07995 1047.20034 2189.61328 1090.29367 2154.07995 1143.68034 2170.47995 1169.827 2121.09328 1225.427 2115.75995 1230.76034 2060.13328 1280.12033 2033.97328 1263.73367 1980.55995 1299.25367 1937.43995"></polyline>
                    <path d="M1224.147,1935.91995 C1224.147,1837.29329 1144.24034,1757.35996 1045.66701,1757.35996 C947.093676,1757.35996 867.188345,1837.29329 867.188345,1935.91995 C867.188345,2034.53328 947.093676,2114.46661 1045.66701,2114.46661 C1144.24034,2114.46661 1224.147,2034.53328 1224.147,1935.91995" id="path248" fill="#FFFFFF"></path>
                    <path d="M1045.66701,2111.50661 C948.880343,2111.50661 870.151012,2032.73328 870.151012,1935.91995 C870.151012,1839.09329 948.880343,1760.31996 1045.66701,1760.31996 C1142.44034,1760.31996 1221.187,1839.09329 1221.187,1935.91995 C1221.187,2032.73328 1142.44034,2111.50661 1045.66701,2111.50661 Z M1045.66701,1754.38662 C945.613676,1754.38662 864.224345,1835.82662 864.224345,1935.91995 C864.224345,2035.99995 945.613676,2117.43995 1045.66701,2117.43995 C1145.72034,2117.43995 1227.107,2035.99995 1227.107,1935.91995 C1227.107,1835.82662 1145.72034,1754.38662 1045.66701,1754.38662" id="path250" fill="#000000"></path>
                    <path d="M1036.89367,1845.58662 C1034.49367,1845.58662 1032.17367,1846.55995 1030.49367,1848.30662 L961.947009,1919.53329 C958.547009,1923.07995 958.653676,1928.70662 962.187009,1932.10662 C965.720343,1935.50662 971.347009,1935.39995 974.760342,1931.86662 L1035.74701,1868.49329 L1123.44034,1996.03995 C1126.22701,2000.09328 1131.76034,2001.10662 1135.80034,1998.33328 C1139.84034,1995.54662 1140.867,1990.01328 1138.09367,1985.97328 L1044.22701,1849.43995 C1042.70701,1847.23995 1040.29367,1845.83995 1037.62701,1845.61329 C1037.38701,1845.59995 1037.14701,1845.58662 1036.89367,1845.58662" id="path252" fill="#000000"></path>
                    <path d="M1751.58699,1958.75995 L1719.02699,1953.73328 L1697.93366,1976.61328 C1693.40032,1981.51995 1684.66699,1978.91995 1683.16032,1972.19995 L1676.12032,1940.94662 L1645.81366,1927.23995 C1639.29366,1924.27995 1638.64033,1915.58662 1644.70699,1912.51995 L1672.93366,1898.22662 L1675.28032,1866.87995 C1675.78699,1860.14662 1684.12032,1857.37329 1689.37366,1862.18662 L1713.85366,1884.61329 L1745.61366,1878.95995 C1752.45366,1877.73329 1758.24032,1884.71995 1755.42699,1890.77329 L1742.34699,1918.91995 L1759.62699,1946.77328 C1763.33366,1952.75995 1758.58699,1959.83995 1751.58699,1958.75995" id="path254" fill="#000000"></path>
                    <path d="M1879.38699,2028.50662 L1847.37365,2022.15995 L1825.82699,2044.47995 C1821.18699,2049.27995 1812.64032,2046.30662 1811.36032,2039.45328 L1805.38699,2007.58662 L1775.88032,1992.55995 C1769.53366,1989.31995 1769.16032,1980.50662 1775.25366,1977.63995 L1803.57365,1964.27995 L1806.88032,1932.66662 C1807.60032,1925.87995 1815.90699,1923.39995 1820.96032,1928.47995 L1844.44032,1952.09328 L1876.00032,1947.58662 C1882.77365,1946.62662 1888.29365,1953.90662 1885.32032,1959.91995 L1871.50699,1987.86662 L1887.69365,2016.69328 C1891.18699,2022.89328 1886.26699,2029.86662 1879.38699,2028.50662" id="path256" fill="#000000"></path>
                    <path d="M2018.16032,2086.73328 L1986.46698,2081.85328 L1966.32032,2105.59995 C1961.98698,2110.70661 1953.46698,2108.09328 1951.90698,2101.18661 L1944.64032,2069.06661 L1915.02699,2055.21328 C1908.65365,2052.23995 1907.90699,2043.29328 1913.74699,2040.07995 L1940.94698,2025.10662 L1942.80032,1992.79995 C1943.20032,1985.85328 1951.25365,1982.91995 1956.42698,1987.83995 L1980.49365,2010.71995 L2011.25365,2004.59995 C2017.86698,2003.27995 2023.60032,2010.42662 2020.94698,2016.67995 L2008.62698,2045.78662 L2025.78698,2074.30661 C2029.48032,2080.43995 2024.97365,2087.78661 2018.16032,2086.73328" id="path258" fill="#000000"></path>
                    <path d="M2152.02698,2143.55995 L2120.57365,2137.34661 L2099.44031,2160.22661 C2094.89365,2165.14661 2086.49365,2162.18661 2085.22698,2155.21328 L2079.32031,2122.81328 L2050.30698,2107.73328 C2044.08032,2104.49328 2043.70698,2095.51995 2049.68032,2092.54661 L2077.48031,2078.73328 L2080.69365,2046.53328 C2081.37365,2039.61328 2089.54698,2037.02662 2094.50698,2042.15995 L2117.60031,2066.02662 L2148.58698,2061.19995 C2155.25365,2060.17328 2160.68031,2067.54661 2157.76031,2073.67995 L2144.22698,2102.23995 L2160.17365,2131.46661 C2163.60031,2137.74661 2158.78698,2144.89328 2152.02698,2143.55995" id="path260" fill="#000000"></path>
                </g>
            </g>
        </g>
    </g>
</svg>