<svg width="19" height="18" viewBox="0 0 19 18" fill="none" xmlns="http://www.w3.org/2000/svg">
<path d="M18.5 9C18.5 4.02948 14.4705 0 9.5 0C4.52948 0 0.5 4.02948 0.5 9C0.5 13.2206 3.40592 16.7623 7.32596 17.735V11.7504H5.47016V9H7.32596V7.81488C7.32596 4.75164 8.71232 3.3318 11.7198 3.3318C12.29 3.3318 13.2739 3.44376 13.6764 3.55536V6.04836C13.464 6.02604 13.095 6.01488 12.6367 6.01488C11.161 6.01488 10.5908 6.57396 10.5908 8.02728V9H13.5306L13.0255 11.7504H10.5908V17.9341C15.0472 17.3959 18.5004 13.6015 18.5004 9H18.5Z" fill="#0866FF"/>
</svg>
