<svg width="19" height="18" viewBox="0 0 19 18" fill="none" xmlns="http://www.w3.org/2000/svg">
<path d="M9.49988 7.36328V10.8487H14.3435C14.1308 11.9696 13.4925 12.9188 12.5353 13.5569L15.4562 15.8233C17.158 14.2525 18.1398 11.9452 18.1398 9.20428C18.1398 8.56611 18.0826 7.95242 17.9762 7.36338L9.49988 7.36328Z" fill="#4285F4"/>
<path d="M4.45596 10.7129L3.79719 11.2172L1.46533 13.0335C2.94624 15.9708 5.98147 17.9999 9.49962 17.9999C11.9296 17.9999 13.9668 17.1981 15.4559 15.8235L12.535 13.5572C11.7332 14.0972 10.7105 14.4245 9.49962 14.4245C7.15963 14.4245 5.17151 12.8454 4.45964 10.7181L4.45596 10.7129Z" fill="#34A853"/>
<path d="M1.46538 4.9668C0.851781 6.17766 0.5 7.54404 0.5 9.00038C0.5 10.4567 0.851781 11.8231 1.46538 13.034C1.46538 13.0421 4.45998 10.7103 4.45998 10.7103C4.27998 10.1703 4.17359 9.59764 4.17359 9.00029C4.17359 8.40293 4.27998 7.83024 4.45998 7.29025L1.46538 4.9668Z" fill="#FBBC05"/>
<path d="M9.49981 3.58363C10.8253 3.58363 12.0034 4.0418 12.9443 4.92545L15.5216 2.34821C13.9589 0.891874 11.9298 0 9.49981 0C5.98165 0 2.94624 2.02091 1.46533 4.96637L4.45984 7.29001C5.17161 5.16271 7.15982 3.58363 9.49981 3.58363Z" fill="#EA4335"/>
</svg>
