
<svg width="46" height="46" viewBox="0 0 46 46" fill="none" xmlns="http://www.w3.org/2000/svg">
<g id="vuesax/bulk/lock">
<g id="lock">
<path id="Vector" opacity="0.4" d="M23.0001 33.2542C24.7256 33.2542 26.1243 31.8555 26.1243 30.13C26.1243 28.4046 24.7256 27.0059 23.0001 27.0059C21.2747 27.0059 19.876 28.4046 19.876 30.13C19.876 31.8555 21.2747 33.2542 23.0001 33.2542Z" fill="#2563EB"/>
<path id="Vector_2" d="M31.9127 18.0933H14.0877C6.22933 18.0933 3.8335 20.4891 3.8335 28.3474V31.9124C3.8335 39.7708 6.22933 42.1666 14.0877 42.1666H31.9127C39.771 42.1666 42.1668 39.7708 42.1668 31.9124V28.3474C42.1668 20.4891 39.771 18.0933 31.9127 18.0933ZM23.0002 35.9183C19.7993 35.9183 17.2118 33.3116 17.2118 30.1299C17.2118 26.9483 19.7993 24.3416 23.0002 24.3416C26.201 24.3416 28.7885 26.9483 28.7885 30.1299C28.7885 33.3116 26.201 35.9183 23.0002 35.9183Z" fill="#2563EB"/>
<path id="Vector_3" opacity="0.4" d="M13.6467 18.1127V15.8702C13.6467 10.2543 15.2375 6.51683 23 6.51683C30.7625 6.51683 32.3534 10.2543 32.3534 15.8702V18.1127C33.3309 18.1318 34.2125 18.1702 35.0367 18.2852V15.8702C35.0367 10.6952 33.7909 3.8335 23 3.8335C12.2092 3.8335 10.9634 10.6952 10.9634 15.8702V18.266C11.7684 18.1702 12.6692 18.1127 13.6467 18.1127Z" fill="#2563EB"/>
</g>
</g>
</svg>
