<svg width="19" height="18" viewBox="0 0 19 18" fill="none" xmlns="http://www.w3.org/2000/svg">
<path d="M13.3824 6.4976C14.5399 7.32798 15.9579 7.81656 17.4894 7.81656V4.85896C17.1996 4.85902 16.9105 4.82869 16.6269 4.7684V7.09645C15.0955 7.09645 13.6777 6.60787 12.5199 5.77755V11.8132C12.5199 14.8325 10.081 17.2799 7.07256 17.2799C5.95005 17.2799 4.90673 16.9394 4.04004 16.3553C5.02922 17.3703 6.40872 18 7.93488 18C10.9435 18 13.3825 15.5525 13.3825 12.5331V6.4976H13.3824V6.4976ZM14.4464 3.51375C13.8549 2.86517 13.4664 2.02701 13.3824 1.10038V0.719971H12.5651C12.7708 1.89771 13.4725 2.9039 14.4464 3.51375ZM5.94286 14.0384C5.61235 13.6035 5.43374 13.0714 5.43454 12.5244C5.43454 11.1435 6.5501 10.0238 7.92639 10.0238C8.18289 10.0238 8.43784 10.0632 8.68228 10.141V7.11733C8.39662 7.07804 8.10832 7.06136 7.82014 7.06748V9.42098C7.57552 9.34314 7.32044 9.30361 7.06389 9.30385C5.68759 9.30385 4.5721 10.4234 4.5721 11.8045C4.5721 12.781 5.12969 13.6265 5.94286 14.0384Z" fill="#FF004F"/>
<path d="M12.5197 5.77749C13.6775 6.60781 15.0954 7.09639 16.6268 7.09639V4.76833C15.7719 4.5856 15.0152 4.1373 14.4462 3.51375C13.4723 2.90384 12.7706 1.89765 12.5649 0.719971H10.4179V12.533C10.4131 13.9101 9.29943 15.0252 7.92609 15.0252C7.11681 15.0252 6.39784 14.6381 5.9425 14.0384C5.12939 13.6265 4.5718 12.781 4.5718 11.8046C4.5718 10.4236 5.68729 9.30392 7.06359 9.30392C7.32728 9.30392 7.58144 9.34512 7.81984 9.42104V7.06754C4.86429 7.12882 2.4873 9.55238 2.4873 12.533C2.4873 14.0209 3.07923 15.3698 4.03993 16.3553C4.90662 16.9394 5.94994 17.28 7.07245 17.28C10.0809 17.28 12.5198 14.8324 12.5198 11.8132V5.77749H12.5197Z" fill="black"/>
<path d="M16.6269 4.76835V4.13886C15.8561 4.14004 15.1004 3.92339 14.4464 3.5137C15.0253 4.1498 15.7877 4.5884 16.6269 4.76835ZM12.565 0.719988C12.5454 0.607434 12.5303 0.494138 12.5199 0.38041V0H9.55551V11.8131C9.55078 13.1901 8.43719 14.3052 7.06373 14.3052C6.6605 14.3052 6.27979 14.2091 5.94264 14.0384C6.39798 14.6381 7.11695 15.0252 7.92623 15.0252C9.29945 15.0252 10.4133 13.9102 10.4181 12.533V0.719988H12.565ZM7.8201 7.06755V6.39742C7.57241 6.36344 7.32268 6.34639 7.07265 6.34652C4.06394 6.34645 1.625 8.79404 1.625 11.8131C1.625 13.7059 2.58354 15.374 4.04013 16.3552C3.07943 15.3697 2.48751 14.0208 2.48751 12.533C2.48751 9.55239 4.86443 7.12883 7.8201 7.06755Z" fill="#00F2EA"/>
</svg>
